<svg width="340" height="372" viewBox="0 0 340 372" fill="none" xmlns="http://www.w3.org/2000/svg">
<path d="M157.44 340.45H157.74L159.839 340.6C158.115 340.525 156.316 340.375 154.441 340.15C154.367 340.15 154.217 340.15 154.142 340.15C155.191 340.225 156.316 340.375 157.365 340.45H157.44Z" fill="#1863BE"/>
<path d="M133.449 336.851L135.324 337.226C135.324 337.226 135.099 337.226 135.024 337.226C134.499 337.151 133.974 337.001 133.449 336.926V336.851Z" fill="#1863BE"/>
<path d="M147.994 339.401C150.018 339.701 152.117 339.926 154.141 340.076C154.216 340.076 154.291 340.076 154.441 340.076C152.342 339.851 150.168 339.626 148.069 339.326L147.994 339.401Z" fill="#1863BE"/>
<path d="M135.249 337.226C135.249 337.226 135.473 337.226 135.623 337.301H135.923C137.723 337.751 139.597 338.05 141.471 338.425C141.471 338.425 141.321 338.425 141.246 338.425C139.147 338.05 137.123 337.676 135.174 337.301L135.249 337.226Z" fill="#1863BE"/>
<path d="M141.471 338.426H141.621C143.646 338.801 145.67 339.101 147.769 339.326C145.595 339.026 143.496 338.726 141.396 338.351L141.471 338.426Z" fill="#1863BE"/>
<path d="M182.706 337.45C181.506 337.45 180.382 337.375 179.182 337.3C179.032 337.3 178.882 337.45 178.657 337.525C179.857 337.525 180.981 337.675 182.106 337.675C185.255 337.825 188.254 337.9 190.953 337.9C191.177 337.9 191.402 337.75 191.627 337.675C188.853 337.675 185.855 337.675 182.631 337.45H182.706Z" fill="#1863BE"/>
<path d="M164.938 336.251C164.938 336.251 164.713 336.401 164.638 336.476C169.286 336.926 173.859 337.301 178.283 337.526C178.432 337.526 178.582 337.376 178.807 337.301C174.309 337.076 169.661 336.701 164.938 336.251Z" fill="#1863BE"/>
<path d="M135.323 332.276C130.675 331.526 126.177 330.626 121.829 329.727C121.904 329.802 122.054 329.952 122.203 330.027C126.477 330.926 130.9 331.751 135.473 332.501C135.473 332.426 135.398 332.276 135.323 332.201V332.276Z" fill="#1863BE"/>
<path d="M164.488 336.176C159.764 335.726 154.966 335.201 150.243 334.526C150.243 334.601 150.243 334.676 150.243 334.751C154.966 335.351 159.689 335.951 164.263 336.401C164.338 336.401 164.488 336.251 164.563 336.176H164.488Z" fill="#1863BE"/>
<path d="M87.1918 319.228L88.2414 319.827C88.8411 320.127 89.5159 320.502 90.2656 320.802C89.9657 320.652 89.7408 320.502 89.4409 320.352C88.6162 319.977 87.8665 319.602 87.1918 319.228Z" fill="#1863BE"/>
<path d="M91.9901 321.403C91.1655 321.103 90.4157 320.728 89.666 320.428C89.9659 320.578 90.1908 320.728 90.4907 320.878C91.1654 321.178 91.9152 321.478 92.7398 321.853C94.5392 322.602 96.4884 323.277 98.5876 323.952C98.3627 323.802 98.1378 323.652 97.9129 323.577C95.7387 322.827 93.7145 322.152 91.9901 321.403Z" fill="#1863BE"/>
<path d="M149.868 334.451C145.07 333.851 140.347 333.101 135.699 332.276C135.699 332.351 135.774 332.426 135.849 332.576C140.422 333.326 145.07 334.076 149.793 334.676C149.793 334.601 149.793 334.526 149.793 334.451H149.868Z" fill="#1863BE"/>
<path d="M208.196 336.551L209.321 336.326C207.446 336.776 205.047 337.076 202.198 337.301C201.898 337.301 201.674 337.451 201.374 337.526C204.073 337.301 206.397 337.001 208.196 336.551Z" fill="#1863BE"/>
<path d="M98.2129 323.653C98.2129 323.653 98.6627 323.953 98.8876 324.028C102.036 325.077 105.56 326.052 109.309 327.027C109.159 326.877 108.934 326.802 108.784 326.652C104.96 325.677 101.362 324.627 98.2129 323.578V323.653Z" fill="#1863BE"/>
<path d="M192.002 337.675C192.002 337.675 191.552 337.825 191.328 337.9C195.001 337.9 198.3 337.75 201.074 337.525C201.374 337.525 201.599 337.375 201.899 337.3C199.05 337.525 195.676 337.675 191.927 337.675H192.002Z" fill="#1863BE"/>
<path d="M109.084 326.803C109.084 326.803 109.458 327.028 109.608 327.178C113.432 328.153 117.48 329.052 121.754 329.952C121.679 329.877 121.529 329.727 121.454 329.652C117.106 328.752 112.982 327.778 109.159 326.803H109.084Z" fill="#1863BE"/>
<path d="M230.987 325.603C230.987 325.603 230.462 325.903 230.238 326.053C234.436 325.678 237.96 325.228 240.809 324.553C241.108 324.403 241.408 324.253 241.633 324.103C238.784 324.778 235.186 325.228 230.987 325.603Z" fill="#1863BE"/>
<path d="M55.3291 295.981C55.3291 295.981 55.8539 296.431 56.0788 296.656C57.7282 298.006 60.2023 299.431 63.501 300.931C63.2761 300.706 63.0512 300.481 62.8263 300.256C59.5275 298.756 56.9785 297.256 55.3291 295.906V295.981Z" fill="#1863BE"/>
<path d="M131.2 318.103C124.303 316.903 117.555 315.628 111.033 314.354C111.108 314.503 111.183 314.728 111.258 314.878C117.705 316.228 124.378 317.503 131.2 318.628C131.2 318.478 131.2 318.328 131.125 318.103H131.2Z" fill="#1863BE"/>
<path d="M230.613 325.677C226.339 325.977 221.391 326.202 215.768 326.202C215.543 326.352 215.319 326.502 215.169 326.652C220.716 326.652 225.59 326.502 229.863 326.127C230.088 325.977 230.388 325.827 230.613 325.677Z" fill="#1863BE"/>
<path d="M54.5795 295.381L55.4042 296.131C55.4042 296.131 55.779 296.431 55.929 296.581C55.704 296.356 55.4042 296.131 55.1792 295.906C54.9543 295.756 54.7294 295.531 54.5795 295.381Z" fill="#1863BE"/>
<path d="M110.508 314.204C104.061 312.854 97.9129 311.429 92.1401 309.929C92.2901 310.079 92.44 310.304 92.59 310.454C98.2878 311.879 104.435 313.304 110.808 314.654C110.733 314.504 110.658 314.279 110.508 314.129V314.204Z" fill="#1863BE"/>
<path d="M246.132 322.828L247.106 322.303C245.757 322.978 244.033 323.578 241.858 324.102C241.559 324.252 241.259 324.402 241.034 324.552C243.133 324.028 244.857 323.503 246.132 322.828Z" fill="#1863BE"/>
<path d="M76.0211 305.804C76.0211 305.804 75.6462 305.429 75.4963 305.204C72.2725 304.154 69.2736 303.03 66.5747 301.98C65.3751 301.455 64.1756 301.005 63.126 300.48C63.3509 300.705 63.5758 300.93 63.8007 301.08C64.8503 301.53 65.9749 302.055 67.1744 302.505C69.7984 303.555 72.7973 304.679 76.0211 305.729V305.804Z" fill="#1863BE"/>
<path d="M152.867 321.402C145.745 320.427 138.697 319.378 131.725 318.178C131.725 318.328 131.725 318.478 131.8 318.703C138.697 319.828 145.67 320.952 152.717 321.852C152.717 321.702 152.717 321.552 152.792 321.402H152.867Z" fill="#1863BE"/>
<path d="M91.6151 309.854C85.9173 308.354 80.5943 306.855 75.8711 305.28C76.021 305.505 76.2459 305.655 76.3959 305.88C81.1191 307.454 86.3671 308.954 92.065 310.379C91.915 310.154 91.7651 310.004 91.6151 309.779V309.854Z" fill="#1863BE"/>
<path d="M214.644 326.576C214.644 326.576 215.093 326.276 215.243 326.126C211.12 326.126 206.622 326.051 201.823 325.827C200.099 325.827 198.3 325.677 196.575 325.602C196.425 325.752 196.276 325.902 196.126 326.052C197.925 326.127 199.649 326.201 201.374 326.276C206.172 326.501 210.595 326.576 214.644 326.576Z" fill="#1863BE"/>
<path d="M174.759 323.953C167.711 323.278 160.589 322.453 153.467 321.478C153.467 321.628 153.467 321.778 153.392 321.928C160.439 322.828 167.487 323.653 174.534 324.328C174.609 324.178 174.684 324.028 174.834 323.878L174.759 323.953Z" fill="#1863BE"/>
<path d="M196.05 325.602C189.378 325.227 182.406 324.702 175.433 324.027C175.358 324.177 175.208 324.327 175.133 324.477C182.106 325.152 189.003 325.677 195.601 326.052C195.75 325.902 195.9 325.752 196.05 325.602Z" fill="#1863BE"/>
<path d="M29.4637 265.985L30.0635 266.885C30.5883 267.635 31.413 268.46 32.3876 269.36C32.2377 269.06 32.0128 268.835 31.8628 268.535C30.8132 267.71 29.9885 266.885 29.4637 266.06V265.985Z" fill="#1863BE"/>
<path d="M278.519 301.605L279.344 300.93C279.194 301.08 278.969 301.23 278.744 301.38C278.444 301.605 278.219 301.83 277.995 302.055C278.219 301.905 278.369 301.755 278.519 301.605Z" fill="#1863BE"/>
<path d="M41.6092 274.159C37.3358 272.209 34.187 270.334 32.0128 268.609C32.2377 268.909 32.3877 269.134 32.6126 269.434C34.7868 271.159 37.9356 273.034 42.209 274.984C42.059 274.684 41.8341 274.459 41.6842 274.159H41.6092Z" fill="#1863BE"/>
<path d="M211.945 306.48C203.398 306.03 194.551 305.355 185.555 304.455C185.48 304.68 185.405 304.905 185.255 305.055C194.176 305.88 203.023 306.555 211.495 307.08C211.645 306.855 211.795 306.63 211.945 306.48Z" fill="#1863BE"/>
<path d="M58.1779 281.058C58.1779 281.058 57.878 280.533 57.728 280.308C53.6046 278.958 49.7811 277.533 46.3324 276.183C44.758 275.583 43.3335 274.909 41.984 274.309C42.134 274.609 42.2839 274.834 42.5088 275.133C43.8583 275.733 45.2828 276.408 46.8572 277.008C50.3059 278.358 54.0544 279.783 58.1779 281.133V281.058Z" fill="#1863BE"/>
<path d="M270.498 304.455C270.498 304.455 269.973 304.905 269.748 305.055C273.346 304.23 276.045 303.18 277.77 302.055C278.07 301.83 278.295 301.605 278.519 301.38C276.795 302.58 274.096 303.555 270.423 304.38L270.498 304.455Z" fill="#1863BE"/>
<path d="M102.561 291.857C94.3143 290.132 86.4423 288.332 79.0951 286.458C79.1701 286.682 79.32 286.907 79.395 287.207C86.6672 289.082 94.5392 290.882 102.786 292.607C102.786 292.382 102.636 292.157 102.636 291.932L102.561 291.857Z" fill="#1863BE"/>
<path d="M184.73 304.38C175.733 303.48 166.587 302.43 157.515 301.23C157.515 301.455 157.44 301.68 157.365 301.905C166.437 303.105 175.508 304.155 184.43 305.055C184.505 304.83 184.58 304.605 184.73 304.455V304.38Z" fill="#1863BE"/>
<path d="M236.011 307.83C236.011 307.83 236.385 307.455 236.535 307.23C231.287 307.23 225.515 307.08 219.367 306.855C217.118 306.78 214.869 306.63 212.619 306.555C212.469 306.78 212.319 307.005 212.17 307.155C214.419 307.305 216.668 307.38 218.917 307.455C225.065 307.68 230.688 307.83 235.936 307.83H236.011Z" fill="#1863BE"/>
<path d="M78.4202 286.307C71.0729 284.433 64.3255 282.483 58.2528 280.458C58.4028 280.683 58.5527 280.983 58.7026 281.208C64.7753 283.158 71.5228 285.107 78.795 286.982C78.72 286.757 78.5701 286.457 78.4951 286.232L78.4202 286.307Z" fill="#1863BE"/>
<path d="M256.103 306.479C250.63 306.929 244.332 307.154 237.135 307.154C236.985 307.379 236.76 307.604 236.61 307.754C243.733 307.754 250.03 307.529 255.428 307.079C255.653 306.854 255.878 306.629 256.103 306.479Z" fill="#1863BE"/>
<path d="M156.766 301.081C147.694 299.881 138.623 298.531 129.776 297.031C129.776 297.256 129.776 297.481 129.776 297.706C138.548 299.206 147.619 300.556 156.616 301.756C156.616 301.531 156.691 301.306 156.766 301.081Z" fill="#1863BE"/>
<path d="M129.026 296.881C120.179 295.381 111.558 293.732 103.236 292.007C103.236 292.232 103.386 292.457 103.386 292.682C111.633 294.407 120.179 295.981 129.026 297.481C129.026 297.256 129.026 297.031 129.026 296.806V296.881Z" fill="#1863BE"/>
<path d="M270.197 304.53C266.524 305.355 261.951 306.03 256.553 306.48C256.328 306.705 256.103 306.93 255.878 307.08C261.276 306.63 265.774 306.03 269.448 305.205C269.673 304.98 269.898 304.755 270.197 304.605V304.53Z" fill="#1863BE"/>
<path d="M97.8378 263.585C88.1665 261.56 78.945 259.461 70.3982 257.211C70.3982 257.511 70.5481 257.811 70.5481 258.111C79.0949 260.286 88.3164 262.46 97.9128 264.41C97.9128 264.11 97.9128 263.81 97.8378 263.585Z" fill="#1863BE"/>
<path d="M277.545 280.683C271.172 281.208 263.75 281.433 255.353 281.433C255.203 281.733 255.053 281.958 254.903 282.258C263.225 282.258 270.647 281.958 277.02 281.508C277.17 281.208 277.395 280.983 277.545 280.683Z" fill="#1863BE"/>
<path d="M225.814 280.608C215.768 280.083 205.422 279.258 194.926 278.283C194.851 278.583 194.776 278.808 194.701 279.108C205.197 280.083 215.543 280.908 225.514 281.433C225.664 281.133 225.739 280.908 225.889 280.608H225.814Z" fill="#1863BE"/>
<path d="M254.154 282.258C254.154 282.258 254.454 281.733 254.604 281.433C248.456 281.433 241.708 281.283 234.511 280.983C231.887 280.908 229.263 280.758 226.639 280.608C226.489 280.908 226.414 281.133 226.264 281.433C228.888 281.583 231.512 281.733 234.136 281.808C241.334 282.108 247.931 282.258 254.154 282.258Z" fill="#1863BE"/>
<path d="M303.785 274.759C301.761 276.109 298.537 277.308 294.338 278.283C294.113 278.583 293.964 278.808 293.739 279.108C297.937 278.133 301.086 276.934 303.11 275.584C303.335 275.284 303.485 275.059 303.71 274.759H303.785Z" fill="#1863BE"/>
<path d="M294.039 278.358C289.765 279.333 284.442 280.083 278.07 280.608C277.92 280.908 277.695 281.133 277.545 281.433C283.843 280.908 289.166 280.158 293.439 279.183C293.664 278.883 293.814 278.658 294.039 278.358Z" fill="#1863BE"/>
<path d="M45.6577 250.912C45.6577 250.912 45.5077 250.312 45.3578 250.012C40.4847 248.437 36.0613 246.787 32.0129 245.212C30.1386 244.462 28.4892 243.713 26.9148 243.038C26.9898 243.338 27.1397 243.638 27.2147 243.937C28.7891 244.687 30.5134 245.362 32.3127 246.112C36.2862 247.762 40.7096 249.337 45.5827 250.912H45.6577Z" fill="#1863BE"/>
<path d="M26.5399 242.813C21.5918 240.488 17.8432 238.388 15.2942 236.289C15.4441 236.589 15.5191 236.889 15.669 237.263C18.2181 239.288 21.8917 241.463 26.9148 243.713C26.8398 243.413 26.6899 243.113 26.6149 242.813H26.5399Z" fill="#1863BE"/>
<path d="M305.134 273.859L305.809 273.034C305.359 273.634 304.759 274.159 304.01 274.683C303.785 274.983 303.635 275.208 303.41 275.508C304.16 274.983 304.759 274.458 305.134 273.934V273.859Z" fill="#1863BE"/>
<path d="M69.6486 256.986C61.1019 254.811 53.1549 252.487 46.0326 250.162C46.1076 250.462 46.1825 250.762 46.3325 251.062C53.4548 253.387 61.3268 255.636 69.8736 257.886C69.8736 257.586 69.7236 257.286 69.7236 256.986H69.6486Z" fill="#1863BE"/>
<path d="M11.5455 231.864L11.9204 232.839C12.4452 234.189 13.5698 235.614 15.4441 237.114C15.2941 236.814 15.2191 236.514 15.0692 236.139C13.1949 234.639 12.0703 233.214 11.5455 231.864Z" fill="#1863BE"/>
<path d="M161.264 274.309C150.618 272.884 140.047 271.31 129.701 269.51C129.701 269.81 129.701 270.035 129.701 270.335C140.047 272.059 150.618 273.709 161.189 275.134C161.189 274.834 161.264 274.609 161.339 274.309H161.264Z" fill="#1863BE"/>
<path d="M128.801 269.359C118.455 267.635 108.334 265.685 98.6626 263.66C98.6626 263.96 98.6626 264.26 98.7376 264.485C108.409 266.51 118.455 268.385 128.726 270.109C128.726 269.809 128.726 269.509 128.726 269.284L128.801 269.359Z" fill="#1863BE"/>
<path d="M194.027 278.134C183.531 277.084 172.81 275.884 162.164 274.459C162.164 274.759 162.089 274.984 162.014 275.284C172.585 276.709 183.231 277.909 193.727 278.958C193.802 278.658 193.877 278.433 193.952 278.134H194.027Z" fill="#1863BE"/>
<path d="M18.4432 207.343C12.9703 204.868 8.84682 202.468 6.07288 200.219C6.07288 200.594 6.14785 200.894 6.22282 201.269C8.99677 203.518 13.0452 205.843 18.5182 208.393C18.5182 208.018 18.4432 207.718 18.3682 207.343H18.4432Z" fill="#1863BE"/>
<path d="M130.676 236.588C119.355 234.639 108.259 232.539 97.6132 230.364C97.6132 230.664 97.6132 231.039 97.6132 231.339C108.184 233.514 119.28 235.614 130.601 237.563C130.601 237.263 130.601 236.888 130.676 236.588Z" fill="#1863BE"/>
<path d="M39.2849 216.267C39.2849 216.267 39.2849 215.592 39.21 215.292C33.887 213.567 29.0138 211.767 24.5905 209.968C22.5663 209.143 20.692 208.318 18.9677 207.568C18.9677 207.943 19.0426 208.243 19.1176 208.618C20.8419 209.443 22.7162 210.193 24.7405 211.017C29.0888 212.817 34.0369 214.542 39.2849 216.342V216.267Z" fill="#1863BE"/>
<path d="M311.957 246.412C307.234 247.462 301.386 248.287 294.488 248.887C294.338 249.187 294.263 249.487 294.114 249.862C301.086 249.262 306.934 248.437 311.582 247.387C311.732 247.087 311.882 246.787 311.957 246.412Z" fill="#1863BE"/>
<path d="M236.835 249.787C236.835 249.787 236.985 249.187 237.135 248.812C226.114 248.212 214.793 247.312 203.248 246.188C203.248 246.487 203.098 246.787 203.023 247.162C214.569 248.287 225.889 249.112 236.835 249.712V249.787Z" fill="#1863BE"/>
<path d="M1.72449 194.219L1.87443 195.269C2.17432 197.069 3.5238 199.018 6.07284 201.043C6.07284 200.668 5.99787 200.368 5.9229 199.993C3.37386 197.894 2.02437 195.944 1.72449 194.144V194.219Z" fill="#1863BE"/>
<path d="M322.678 242.438C320.429 243.938 316.98 245.288 312.332 246.337C312.182 246.637 312.032 246.937 311.957 247.312C316.605 246.262 320.054 244.913 322.303 243.413C322.453 243.113 322.603 242.813 322.753 242.438H322.678Z" fill="#1863BE"/>
<path d="M166.287 241.988C154.591 240.413 142.971 238.688 131.65 236.738C131.65 237.038 131.65 237.413 131.575 237.713C142.896 239.663 154.517 241.388 166.212 242.962C166.212 242.662 166.287 242.363 166.362 241.988H166.287Z" fill="#1863BE"/>
<path d="M293.814 248.962C286.766 249.487 278.669 249.787 269.523 249.787C269.448 250.087 269.298 250.387 269.223 250.762C278.369 250.762 286.466 250.462 293.514 249.937C293.664 249.637 293.739 249.262 293.889 248.962H293.814Z" fill="#1863BE"/>
<path d="M325.002 240.489L325.452 239.514C325.002 240.489 324.177 241.463 322.903 242.363C322.753 242.663 322.603 243.038 322.453 243.338C323.727 242.438 324.552 241.538 325.002 240.564V240.489Z" fill="#1863BE"/>
<path d="M96.7132 230.14C86.1422 227.965 76.021 225.565 66.5746 223.166C66.5746 223.465 66.5746 223.84 66.5746 224.14C76.021 226.54 86.0672 228.865 96.6382 231.114C96.6382 230.815 96.6382 230.44 96.6382 230.14H96.7132Z" fill="#1863BE"/>
<path d="M65.7501 223.016C56.3786 220.616 47.6819 218.066 39.8849 215.517C39.8849 215.817 39.8849 216.192 39.9599 216.491C47.7569 219.041 56.4536 221.516 65.8251 223.99C65.8251 223.691 65.8251 223.316 65.8251 223.016H65.7501Z" fill="#1863BE"/>
<path d="M268.398 250.762C268.398 250.762 268.623 250.162 268.698 249.787C261.951 249.787 254.603 249.637 246.657 249.337C243.808 249.187 240.884 249.112 237.96 248.962C237.885 249.262 237.81 249.562 237.66 249.937C240.584 250.087 243.433 250.237 246.282 250.312C254.154 250.612 261.501 250.762 268.248 250.762H268.398Z" fill="#1863BE"/>
<path d="M202.198 246.188C190.653 245.063 178.957 243.713 167.262 242.138C167.262 242.438 167.187 242.813 167.112 243.113C178.732 244.688 190.503 246.038 201.973 247.163C201.973 246.863 202.123 246.563 202.198 246.188Z" fill="#1863BE"/>
<path d="M277.845 214.092C277.845 214.092 277.995 213.342 277.995 213.042C270.947 213.042 263.375 212.892 255.128 212.517C252.129 212.367 249.13 212.217 246.132 212.067C246.132 212.442 245.982 212.817 245.982 213.117C248.981 213.267 251.979 213.417 254.978 213.567C263.15 213.867 270.797 214.092 277.845 214.092Z" fill="#1863BE"/>
<path d="M245.232 212.067C233.836 211.467 221.991 210.493 209.995 209.368C209.995 209.743 209.92 210.118 209.845 210.418C221.841 211.542 233.611 212.517 245.082 213.117C245.082 212.742 245.232 212.367 245.232 212.067Z" fill="#1863BE"/>
<path d="M99.3374 192.645C88.3166 190.32 77.8206 187.92 68.0743 185.446C68.0743 185.821 67.9993 186.196 67.9243 186.496C77.7456 188.97 88.2416 191.445 99.1875 193.695C99.1875 193.32 99.2624 192.945 99.3374 192.645Z" fill="#1863BE"/>
<path d="M304.16 212.142C296.887 212.742 288.415 213.042 278.894 213.042C278.894 213.417 278.744 213.792 278.744 214.092C288.266 214.092 296.737 213.792 304.01 213.192C304.01 212.817 304.16 212.442 304.234 212.142H304.16Z" fill="#1863BE"/>
<path d="M171.685 204.943C159.54 203.293 147.469 201.493 135.699 199.468C135.699 199.843 135.624 200.218 135.549 200.518C147.319 202.543 159.39 204.343 171.535 205.992C171.535 205.617 171.61 205.242 171.685 204.943Z" fill="#1863BE"/>
<path d="M134.649 199.318C122.878 197.294 111.333 195.119 100.312 192.869C100.312 193.244 100.237 193.619 100.162 193.919C111.183 196.244 122.729 198.343 134.499 200.368C134.499 199.993 134.574 199.618 134.649 199.318Z" fill="#1863BE"/>
<path d="M334.074 205.393C331.749 206.968 328.151 208.318 323.353 209.443C323.353 209.817 323.203 210.192 323.128 210.492C327.926 209.368 331.525 208.018 333.849 206.443C333.849 206.068 333.999 205.693 334.074 205.393Z" fill="#1863BE"/>
<path d="M18.1433 168.948C12.4454 166.323 8.24703 163.849 5.32314 161.524C5.32314 161.899 5.32314 162.274 5.24817 162.649C8.09709 164.973 12.3705 167.448 18.0683 170.073C18.0683 169.698 18.0683 169.323 18.1433 168.948Z" fill="#1863BE"/>
<path d="M208.946 209.217C196.95 208.017 184.805 206.667 172.66 205.018C172.66 205.393 172.585 205.767 172.51 206.067C184.655 207.717 196.8 209.067 208.796 210.267C208.796 209.892 208.871 209.517 208.946 209.217Z" fill="#1863BE"/>
<path d="M0.749654 155.15C0.749654 155.15 0.749654 155.9 0.674683 156.275C0.899597 158.224 2.32406 160.324 5.02303 162.499C5.02303 162.124 5.02303 161.749 5.09801 161.374C2.32406 159.124 0.899597 157.025 0.749654 155.15Z" fill="#1863BE"/>
<path d="M39.51 178.321C39.51 178.321 39.51 177.571 39.585 177.197C34.0371 175.397 29.014 173.522 24.4407 171.722C22.3415 170.897 20.3922 170.072 18.5929 169.248C18.5929 169.623 18.5929 169.997 18.5179 170.372C20.3173 171.197 22.2665 172.022 24.3657 172.847C28.939 174.722 34.0371 176.522 39.51 178.321Z" fill="#1863BE"/>
<path d="M67.2497 185.221C57.5034 182.671 48.4318 180.122 40.3349 177.422C40.3349 177.797 40.3349 178.172 40.2599 178.547C48.3568 181.171 57.4284 183.796 67.1747 186.346C67.1747 185.971 67.1747 185.596 67.3246 185.296L67.2497 185.221Z" fill="#1863BE"/>
<path d="M337.072 202.468L337.297 201.343C336.997 202.768 336.023 204.043 334.373 205.243C334.373 205.618 334.223 205.993 334.148 206.293C335.873 205.093 336.847 203.818 337.072 202.393V202.468Z" fill="#1863BE"/>
<path d="M322.903 209.518C318.029 210.642 311.957 211.467 304.759 212.067C304.759 212.442 304.61 212.817 304.535 213.117C311.732 212.517 317.805 211.692 322.678 210.567C322.678 210.192 322.828 209.818 322.903 209.518Z" fill="#1863BE"/>
<path d="M177.008 165.423C165.087 163.848 153.242 162.048 141.621 160.099C141.621 160.474 141.471 160.849 141.396 161.148C153.017 163.098 164.938 164.898 176.858 166.548C176.858 166.173 176.933 165.798 177.008 165.423Z" fill="#1863BE"/>
<path d="M213.744 169.698C201.973 168.573 189.978 167.148 178.057 165.573C178.057 165.948 177.982 166.323 177.907 166.698C189.828 168.273 201.823 169.698 213.669 170.823C213.669 170.448 213.669 170.073 213.744 169.698Z" fill="#1863BE"/>
<path d="M325.827 169.923C321.028 171.048 315.031 171.873 307.983 172.473C307.983 172.847 307.983 173.222 307.983 173.597C315.106 172.997 321.103 172.173 325.902 171.048C325.902 170.673 325.902 170.298 325.902 169.923H325.827Z" fill="#1863BE"/>
<path d="M46.8573 139.177C46.8573 139.177 47.0822 138.502 47.1572 138.127C41.6843 136.327 36.7362 134.527 32.2379 132.728C30.2136 131.903 28.2644 131.078 26.465 130.253C26.3901 130.628 26.2401 130.928 26.1652 131.303C27.9645 132.128 29.8388 132.953 31.938 133.777C36.4363 135.577 41.4594 137.452 46.8573 139.177Z" fill="#1863BE"/>
<path d="M26.0153 130.028C20.3925 127.478 16.269 125.004 13.4201 122.754C13.3452 123.129 13.1952 123.429 13.1202 123.804C15.9692 126.053 20.1676 128.528 25.7155 131.078C25.7904 130.703 25.9404 130.403 26.0153 130.028Z" fill="#1863BE"/>
<path d="M249.355 172.397C238.11 171.797 226.489 170.897 214.719 169.772C214.719 170.147 214.719 170.522 214.644 170.897C226.414 172.022 238.11 172.922 249.28 173.522C249.28 173.147 249.28 172.772 249.28 172.397H249.355Z" fill="#1863BE"/>
<path d="M140.572 159.874C128.951 157.924 117.631 155.749 106.76 153.5C106.76 153.874 106.61 154.174 106.535 154.549C117.406 156.799 128.726 158.974 140.347 160.924C140.347 160.549 140.497 160.174 140.497 159.874H140.572Z" fill="#1863BE"/>
<path d="M12.82 123.579C12.82 123.579 13.0449 122.904 13.1199 122.529C10.4209 120.354 8.99648 118.255 8.84654 116.38C8.69659 116.755 8.62162 117.055 8.47168 117.43C8.69659 119.304 10.0461 121.404 12.7451 123.579H12.82Z" fill="#1863BE"/>
<path d="M105.86 153.35C95.064 151.1 84.7179 148.7 75.0466 146.226C74.9716 146.601 74.8966 146.901 74.7467 147.275C84.418 149.75 94.7641 152.15 105.56 154.4C105.635 154.025 105.71 153.65 105.785 153.35H105.86Z" fill="#1863BE"/>
<path d="M281.668 174.497C281.668 174.497 281.668 173.747 281.668 173.372C274.771 173.372 267.274 173.222 259.177 172.847C256.253 172.697 253.329 172.547 250.33 172.397C250.33 172.772 250.33 173.147 250.33 173.522C253.329 173.672 256.253 173.822 259.177 173.972C267.274 174.272 274.771 174.497 281.668 174.497Z" fill="#1863BE"/>
<path d="M339.996 162.049V160.924C339.996 162.724 339.022 164.298 336.997 165.723C336.997 166.098 336.997 166.473 336.997 166.848C339.022 165.423 340.071 163.773 339.996 162.049Z" fill="#1863BE"/>
<path d="M307.309 172.472C300.111 173.072 291.864 173.372 282.493 173.372C282.493 173.747 282.493 174.122 282.493 174.497C291.864 174.497 300.186 174.197 307.383 173.597C307.383 173.222 307.383 172.847 307.383 172.472H307.309Z" fill="#1863BE"/>
<path d="M336.772 165.874C334.448 167.448 330.925 168.723 326.201 169.848C326.201 170.223 326.201 170.598 326.201 170.973C330.925 169.848 334.523 168.498 336.772 166.998C336.772 166.623 336.772 166.248 336.772 165.874Z" fill="#1863BE"/>
<path d="M74.2968 146.001C64.7005 143.526 55.8538 140.976 47.8319 138.352C47.7569 138.727 47.607 139.026 47.532 139.401C55.479 142.026 64.4006 144.576 73.9969 147.05C74.0719 146.675 74.1469 146.376 74.2968 146.001Z" fill="#1863BE"/>
<path d="M41.0844 94.4825C35.9114 92.0828 32.0128 89.8331 29.3139 87.7334C29.1639 88.0334 28.939 88.3333 28.7891 88.6333C31.4131 90.733 35.3116 93.0577 40.5596 95.4574C40.7095 95.1574 40.8595 94.8575 41.0844 94.5575V94.4825Z" fill="#1863BE"/>
<path d="M249.281 134.003C238.784 133.403 227.989 132.578 216.968 131.528C216.968 131.903 216.968 132.203 216.968 132.578C227.989 133.628 238.859 134.452 249.355 135.052C249.355 134.677 249.355 134.377 249.355 134.003H249.281Z" fill="#1863BE"/>
<path d="M181.806 127.403C170.71 125.903 159.615 124.253 148.819 122.378C148.819 122.678 148.669 123.053 148.594 123.428C159.465 125.228 170.561 126.953 181.656 128.453C181.656 128.078 181.731 127.778 181.806 127.403Z" fill="#1863BE"/>
<path d="M115.531 116.155C105.41 114.055 95.8137 111.805 86.8171 109.556C86.6672 109.856 86.5922 110.231 86.4423 110.531C95.4388 112.855 105.11 115.03 115.231 117.205C115.306 116.905 115.456 116.53 115.531 116.23V116.155Z" fill="#1863BE"/>
<path d="M28.5643 88.4082C28.5643 88.4082 28.9392 87.8083 29.0891 87.5083C26.6151 85.4836 25.2656 83.5339 25.1156 81.8091C24.9657 82.109 24.7408 82.409 24.5908 82.709C24.7408 84.5087 26.0903 86.3835 28.6393 88.4832L28.5643 88.4082Z" fill="#1863BE"/>
<path d="M279.494 135.952C279.494 135.952 279.419 135.277 279.344 134.902C272.896 134.902 265.924 134.752 258.427 134.452C255.728 134.377 252.954 134.227 250.18 134.077C250.18 134.452 250.18 134.752 250.18 135.127C252.954 135.277 255.728 135.427 258.427 135.502C265.924 135.802 272.971 135.952 279.419 135.952H279.494Z" fill="#1863BE"/>
<path d="M216.068 131.378C205.047 130.328 193.877 129.053 182.781 127.553C182.781 127.853 182.706 128.228 182.631 128.603C193.802 130.103 204.973 131.378 215.993 132.428C215.993 132.053 215.993 131.753 215.993 131.378H216.068Z" fill="#1863BE"/>
<path d="M330.925 127.778C330.925 127.778 331.149 128.453 331.224 128.828C333.249 127.403 334.223 125.828 333.998 124.028C333.923 123.653 333.773 123.353 333.699 122.979C333.923 124.703 332.949 126.353 330.925 127.778Z" fill="#1863BE"/>
<path d="M303.26 134.077C296.587 134.602 288.865 134.902 280.094 134.902C280.094 135.277 280.169 135.577 280.244 135.952C289.015 135.952 296.737 135.652 303.485 135.127C303.485 134.752 303.335 134.452 303.26 134.077Z" fill="#1863BE"/>
<path d="M60.3522 102.957C60.3522 102.957 60.6521 102.282 60.802 101.982C55.7039 100.333 51.0557 98.6078 46.8573 96.958C44.983 96.2081 43.1837 95.3832 41.5343 94.6333C41.3844 94.9333 41.1595 95.2332 41.0095 95.5332C42.6589 96.2831 44.4582 97.033 46.4075 97.8579C50.6059 99.5826 55.2541 101.232 60.3522 102.957Z" fill="#1863BE"/>
<path d="M147.919 122.304C137.123 120.429 126.552 118.48 116.431 116.38C116.356 116.68 116.206 117.055 116.131 117.355C126.252 119.454 136.823 121.479 147.694 123.279C147.694 122.979 147.844 122.604 147.919 122.304Z" fill="#1863BE"/>
<path d="M320.504 131.678C316.005 132.653 310.457 133.478 303.86 134.002C303.86 134.377 304.01 134.677 304.085 135.052C310.757 134.527 316.305 133.702 320.803 132.728C320.728 132.353 320.653 132.053 320.579 131.678H320.504Z" fill="#1863BE"/>
<path d="M330.775 127.854C328.6 129.278 325.302 130.553 320.953 131.603C321.028 131.978 321.103 132.278 321.178 132.653C325.602 131.603 328.9 130.403 331.075 128.903L330.775 127.854Z" fill="#1863BE"/>
<path d="M86.0673 109.331C77.1456 107.006 68.8238 104.681 61.4016 102.207C61.2517 102.507 61.1017 102.881 60.9518 103.181C68.374 105.656 76.6958 107.981 85.6924 110.305C85.8423 110.006 85.9923 109.631 86.0673 109.331Z" fill="#1863BE"/>
<path d="M101.886 76.4102C94.0143 74.3855 86.742 72.2858 80.2195 70.186C79.9946 70.486 79.8447 70.711 79.6198 71.0109C86.1423 73.1856 93.4895 75.2854 101.362 77.3101C101.511 77.0101 101.661 76.7102 101.811 76.4852L101.886 76.4102Z" fill="#1863BE"/>
<path d="M307.758 95.9819C303.86 96.8818 298.912 97.5567 293.139 98.0067C293.289 98.3066 293.364 98.6066 293.514 98.9815C299.362 98.5316 304.31 97.7817 308.208 96.8818C308.058 96.5819 307.908 96.2819 307.758 95.9819Z" fill="#1863BE"/>
<path d="M79.095 70.7858C79.095 70.7858 79.4698 70.2608 79.6947 69.9609C75.2714 68.4611 71.148 67.0363 67.4744 65.5365C65.825 64.8615 64.2506 64.1866 62.7512 63.5117C62.5262 63.8117 62.3013 64.0366 62.0764 64.3366C63.5758 65.0115 65.1503 65.6864 66.7996 66.3613C70.4732 67.8611 74.5967 69.3609 79.095 70.7858Z" fill="#1863BE"/>
<path d="M216.068 95.7574C206.397 94.8575 196.575 93.6576 186.829 92.3828C186.829 92.6828 186.829 92.9827 186.754 93.2827C196.575 94.5575 206.397 95.7574 216.143 96.6572C216.143 96.3573 216.143 96.0573 216.143 95.6824L216.068 95.7574Z" fill="#1863BE"/>
<path d="M245.232 98.0072C236.011 97.4823 226.564 96.8074 216.893 95.8325C216.893 96.1325 216.893 96.4324 216.893 96.8074C226.564 97.7073 236.161 98.4572 245.382 98.9821C245.382 98.6821 245.307 98.3822 245.232 98.0072Z" fill="#1863BE"/>
<path d="M316.755 92.6079C314.881 93.8827 311.957 95.0076 308.058 95.8325C308.208 96.1324 308.358 96.4324 308.508 96.8074C312.407 95.9075 315.331 94.7826 317.205 93.5078C317.055 93.2078 316.905 92.9079 316.755 92.6079Z" fill="#1863BE"/>
<path d="M127.751 82.4093C118.905 80.5345 110.433 78.5848 102.561 76.5601C102.411 76.86 102.261 77.16 102.111 77.385C110.058 79.4097 118.53 81.3594 127.452 83.2342C127.602 82.9342 127.677 82.6343 127.826 82.3343L127.751 82.4093Z" fill="#1863BE"/>
<path d="M186.005 92.2337C176.258 90.9589 166.512 89.4591 156.991 87.8843C156.916 88.1842 156.841 88.4842 156.766 88.7842C166.287 90.359 176.108 91.8588 185.855 93.2086C185.855 92.9086 185.855 92.6087 185.93 92.3087L186.005 92.2337Z" fill="#1863BE"/>
<path d="M271.922 99.7326C271.922 99.7326 271.697 99.1327 271.622 98.7577C265.924 98.7577 259.776 98.6077 253.179 98.3828C250.78 98.3078 248.381 98.1578 245.907 98.0078C245.907 98.3078 245.982 98.6077 246.057 98.9827C248.531 99.1327 250.93 99.2076 253.329 99.3576C259.926 99.6576 266.149 99.7326 271.847 99.7326H271.922Z" fill="#1863BE"/>
<path d="M156.166 87.7334C146.644 86.1586 137.423 84.3588 128.501 82.5591C128.351 82.859 128.276 83.159 128.126 83.459C137.048 85.3337 146.344 87.0585 155.866 88.7083C155.941 88.4083 156.016 88.1083 156.091 87.8084L156.166 87.7334Z" fill="#1863BE"/>
<path d="M319.829 89.2334C319.829 89.2334 319.529 88.6335 319.304 88.3335C319.454 89.9083 318.704 91.2581 316.905 92.5329C317.055 92.8329 317.205 93.1329 317.43 93.4328C319.229 92.158 320.054 90.8082 319.829 89.2334Z" fill="#1863BE"/>
<path d="M62.3764 63.2865C57.8031 61.1868 54.3545 59.1621 52.0303 57.3623C51.8054 57.5873 51.5805 57.8872 51.3556 58.1122C53.6797 59.987 57.1284 62.0117 61.7017 64.1114C61.9266 63.8115 62.1515 63.5865 62.3764 63.2865Z" fill="#1863BE"/>
<path d="M51.1306 57.9627C51.1306 57.9627 51.5804 57.4378 51.8054 57.2128C49.6312 55.4131 48.4316 53.6883 48.2817 52.1885C48.0568 52.4134 47.8319 52.7134 47.532 52.9384C47.6819 54.5132 48.8815 56.163 51.0556 57.9627H51.1306Z" fill="#1863BE"/>
<path d="M292.689 98.082C286.841 98.532 280.019 98.8319 272.372 98.8319C272.447 99.1319 272.597 99.4319 272.672 99.8068C280.394 99.8068 287.216 99.5818 293.064 99.0569C292.914 98.7569 292.839 98.457 292.689 98.082Z" fill="#1863BE"/>
<path d="M276.12 65.8369C271.322 66.2119 265.849 66.4368 259.552 66.4368C259.701 66.7368 259.851 66.9618 260.001 67.2617C266.299 67.2617 271.847 67.0368 276.645 66.6618C276.495 66.3618 276.27 66.1369 276.12 65.8369Z" fill="#1863BE"/>
<path d="M295.763 61.4119C294.189 62.4618 291.864 63.3616 288.716 64.0366C288.94 64.3365 289.09 64.5615 289.315 64.8615C292.464 64.1116 294.863 63.2117 296.438 62.1618C296.213 61.8618 295.988 61.6369 295.763 61.3369V61.4119Z" fill="#1863BE"/>
<path d="M102.111 43.5644C102.111 43.5644 102.561 43.1144 102.786 42.8894C99.1874 41.6896 95.8137 40.4898 92.8149 39.2899C91.4654 38.765 90.1909 38.1651 88.9913 37.6401C88.6914 37.8651 88.4665 38.0901 88.1666 38.2401C89.3662 38.765 90.6407 39.3649 91.9902 39.8898C94.989 41.0897 98.3628 42.3645 101.961 43.5644H102.111Z" fill="#1863BE"/>
<path d="M189.303 61.1122C181.356 60.0624 173.409 58.8625 165.687 57.5127C165.612 57.7377 165.537 58.0376 165.462 58.2626C173.259 59.6124 181.206 60.8123 189.228 61.8621C189.228 61.5622 189.228 61.3372 189.303 61.0372V61.1122Z" fill="#1863BE"/>
<path d="M88.6913 37.4906C84.9428 35.7658 82.1688 34.191 80.2945 32.6162C79.9946 32.8412 79.6948 32.9912 79.4698 33.2161C81.3441 34.7159 84.1931 36.3657 87.9416 38.0905C88.2415 37.8655 88.4664 37.6405 88.7663 37.4906H88.6913Z" fill="#1863BE"/>
<path d="M237.51 65.7617C230.013 65.3867 222.291 64.7868 214.419 63.9619C214.419 64.2619 214.419 64.4868 214.494 64.7868C222.366 65.5367 230.163 66.1366 237.735 66.5866C237.66 66.2866 237.585 66.0616 237.51 65.7617Z" fill="#1863BE"/>
<path d="M213.819 63.8869C205.947 63.137 198 62.2372 190.053 61.1123C190.053 61.4123 190.053 61.6372 190.053 61.9372C198.075 62.9871 206.097 63.9619 213.969 64.7118C213.969 64.4119 213.969 64.1869 213.894 63.8869H213.819Z" fill="#1863BE"/>
<path d="M120.854 48.1389C114.482 46.4891 108.559 44.7643 103.236 43.0396C103.011 43.2645 102.786 43.4895 102.561 43.7145C107.884 45.4392 113.882 47.164 120.33 48.8138C120.554 48.5888 120.704 48.3639 120.929 48.1389H120.854Z" fill="#1863BE"/>
<path d="M259.477 67.2617C259.477 67.2617 259.177 66.7368 259.102 66.4368C254.454 66.4368 249.505 66.3618 244.107 66.1369C242.158 66.0619 240.209 65.9869 238.185 65.8369C238.26 66.1369 238.335 66.3618 238.485 66.6618C240.509 66.7368 242.458 66.8868 244.407 66.9618C249.805 67.1867 254.828 67.2617 259.477 67.2617Z" fill="#1863BE"/>
<path d="M165.087 57.437C157.365 56.1622 149.793 54.7374 142.596 53.1626C142.446 53.3876 142.296 53.6875 142.221 53.9125C149.493 55.4123 157.065 56.8371 164.862 58.1869C164.937 57.962 165.012 57.662 165.087 57.437Z" fill="#1863BE"/>
<path d="M298.537 58.6366C298.537 58.6366 298.087 58.1117 297.862 57.8867C298.012 59.1616 297.337 60.2864 295.913 61.3363C296.138 61.6362 296.363 61.8612 296.587 62.1612C298.087 61.1113 298.687 59.9864 298.537 58.7116V58.6366Z" fill="#1863BE"/>
<path d="M141.921 53.0129C134.724 51.5131 127.826 49.9384 121.379 48.2886C121.154 48.5135 121.004 48.7385 120.854 48.9635C127.302 50.6133 134.274 52.1881 141.471 53.7629C141.621 53.5379 141.771 53.2379 141.921 53.0129Z" fill="#1863BE"/>
<path d="M288.491 64.1113C285.267 64.8612 281.293 65.3862 276.57 65.7611C276.72 66.0611 276.945 66.286 277.095 66.586C281.893 66.2111 285.867 65.6111 289.09 64.9362C288.866 64.6363 288.716 64.4113 288.491 64.1113Z" fill="#1863BE"/>
<path d="M79.3199 33.1409C79.3199 33.1409 79.9197 32.7659 80.1446 32.541C78.3453 31.0412 77.3706 29.6913 77.2957 28.4165C76.9958 28.6415 76.6959 28.7915 76.396 29.0164C76.5459 30.2913 77.4456 31.6411 79.2449 33.1409H79.3199Z" fill="#1863BE"/>
<path d="M112.008 14.9177C112.008 14.9177 112.608 14.6178 112.982 14.5428C111.708 13.4929 111.033 12.518 110.883 11.6182C110.583 11.7681 110.208 11.8431 109.909 11.9931C109.984 12.893 110.658 13.9429 112.008 14.9927V14.9177Z" fill="#1863BE"/>
<path d="M142.371 25.7917C137.723 24.5919 133.449 23.392 129.626 22.1172C129.401 22.2672 129.101 22.4171 128.876 22.6421C132.774 23.917 137.048 25.1168 141.771 26.3916C141.996 26.2416 142.146 26.0167 142.371 25.8667V25.7917Z" fill="#1863BE"/>
<path d="M263.3 37.2646C260.976 37.7896 258.127 38.1645 254.678 38.4645C254.903 38.6895 255.128 38.9144 255.353 39.1394C258.802 38.8394 261.726 38.4645 264.05 37.9396C263.825 37.7146 263.525 37.4896 263.3 37.2646Z" fill="#1863BE"/>
<path d="M119.13 18.068C116.431 16.8681 114.407 15.6683 113.057 14.5435C112.758 14.6934 112.458 14.8434 112.083 14.9184C113.432 16.0433 115.531 17.2431 118.23 18.4429C118.53 18.293 118.83 18.143 119.13 17.993V18.068Z" fill="#1863BE"/>
<path d="M254.378 38.4653C250.93 38.7653 246.956 38.9153 242.458 38.9153C242.608 39.1402 242.833 39.3652 242.983 39.5902C247.556 39.5902 251.605 39.4402 255.053 39.1402C254.828 38.9153 254.603 38.6903 254.378 38.4653Z" fill="#1863BE"/>
<path d="M174.234 32.4657C168.686 31.4908 163.213 30.516 157.965 29.3911C157.815 29.6161 157.665 29.7661 157.515 29.991C162.763 31.1159 168.311 32.1657 173.934 33.0656C174.009 32.8407 174.084 32.6907 174.159 32.4657H174.234Z" fill="#1863BE"/>
<path d="M128.501 22.492C128.501 22.492 129.026 22.192 129.251 21.9671C126.627 21.1422 124.228 20.2423 122.054 19.3424C121.079 18.9675 120.179 18.5175 119.28 18.1426C118.98 18.2926 118.68 18.4425 118.38 18.5925C119.28 18.9675 120.179 19.4174 121.154 19.7924C123.328 20.6922 125.802 21.5921 128.426 22.417L128.501 22.492Z" fill="#1863BE"/>
<path d="M242.608 39.5902C242.608 39.5902 242.233 39.1402 242.083 38.9153C238.784 38.9153 235.186 38.8403 231.287 38.6903C229.863 38.6903 228.438 38.5403 227.014 38.4653C227.164 38.6903 227.239 38.9153 227.389 39.1402C228.813 39.2152 230.238 39.2902 231.662 39.3652C235.561 39.5152 239.234 39.5902 242.608 39.5902Z" fill="#1863BE"/>
<path d="M191.777 35.0902C186.079 34.3403 180.307 33.4404 174.759 32.5405C174.684 32.7655 174.609 32.9155 174.534 33.1405C180.157 34.1153 185.929 34.9402 191.777 35.7651C191.777 35.5401 191.777 35.3152 191.777 35.0902Z" fill="#1863BE"/>
<path d="M269.448 35.9156C269.448 35.9156 268.923 35.4657 268.623 35.2407C267.499 35.9906 265.849 36.5905 263.525 37.1905C263.75 37.4154 264.05 37.6404 264.275 37.8654C266.599 37.3404 268.323 36.6655 269.448 35.9156Z" fill="#1863BE"/>
<path d="M209.396 37.1148C203.698 36.5898 198 35.9149 192.227 35.165C192.227 35.39 192.227 35.615 192.227 35.8399C198 36.5898 203.848 37.2648 209.621 37.8647C209.621 37.6397 209.546 37.4147 209.471 37.1898L209.396 37.1148Z" fill="#1863BE"/>
<path d="M226.564 38.4643C221.166 38.1643 215.543 37.7144 209.92 37.1895C209.92 37.4144 209.995 37.6394 210.07 37.8644C215.768 38.3893 221.466 38.8392 226.939 39.1392C226.789 38.9142 226.714 38.6893 226.564 38.4643Z" fill="#1863BE"/>
<path d="M270.947 33.3655C270.947 33.3655 270.347 32.9906 270.122 32.7656C270.197 33.6655 269.748 34.4904 268.698 35.2403C268.998 35.4653 269.223 35.6902 269.523 35.9152C270.572 35.1653 271.097 34.3404 270.947 33.4405V33.3655Z" fill="#1863BE"/>
<path d="M157.515 29.3167C152.342 28.1919 147.319 27.067 142.746 25.8672C142.521 26.0172 142.296 26.2421 142.146 26.3921C146.869 27.592 151.892 28.7168 157.14 29.8417C157.29 29.6167 157.44 29.4667 157.59 29.2417L157.515 29.3167Z" fill="#1863BE"/>
<path d="M193.127 15.4429C189.903 14.9929 186.754 14.543 183.605 14.0181C183.605 14.168 183.455 14.318 183.38 14.468C186.604 14.9929 189.828 15.5179 193.127 15.9678C193.127 15.8178 193.127 15.6678 193.127 15.5179V15.4429Z" fill="#1863BE"/>
<path d="M183.305 14.0187C180.157 13.4938 177.158 12.8939 174.234 12.2939C174.084 12.4439 173.934 12.5189 173.784 12.6689C176.783 13.2688 179.857 13.8687 183.08 14.3937C183.155 14.2437 183.23 14.0937 183.305 14.0187Z" fill="#1863BE"/>
<path d="M174.009 12.218C171.085 11.6181 168.311 10.9432 165.687 10.3433C165.462 10.4183 165.237 10.5682 165.013 10.6432C167.637 11.3181 170.485 11.993 173.484 12.593C173.634 12.443 173.784 12.368 173.934 12.218H174.009Z" fill="#1863BE"/>
<path d="M203.023 16.6429C199.874 16.343 196.651 15.968 193.427 15.5181C193.427 15.668 193.427 15.818 193.427 15.968C196.726 16.4179 200.024 16.7929 203.248 17.0929C203.248 16.9429 203.098 16.7929 203.023 16.6429Z" fill="#1863BE"/>
<path d="M221.916 18.1432C221.916 18.1432 221.466 17.8433 221.316 17.6183C219.442 17.6183 217.418 17.6183 215.243 17.4683C214.419 17.4683 213.669 17.4683 212.844 17.3184C212.994 17.4683 213.144 17.6183 213.294 17.8433C214.119 17.8433 214.943 17.9183 215.768 17.9933C218.017 18.0683 220.042 18.1432 221.991 18.1432H221.916Z" fill="#1863BE"/>
<path d="M165.462 10.2684C162.913 9.59347 160.514 8.91856 158.34 8.24365C158.04 8.31864 157.815 8.46862 157.515 8.54361C159.689 9.29351 162.163 9.96843 164.787 10.6433C165.012 10.5683 165.237 10.4184 165.462 10.3434V10.2684Z" fill="#1863BE"/>
<path d="M228.138 17.3926C226.189 17.5426 224.015 17.6175 221.466 17.6175C221.691 17.7675 221.916 17.9175 222.066 18.1425C224.615 18.1425 226.939 18.0675 228.888 17.9175C228.663 17.7675 228.363 17.6175 228.138 17.3926Z" fill="#1863BE"/>
<path d="M233.162 16.7188C231.887 17.0187 230.238 17.2437 228.364 17.3937C228.664 17.5436 228.888 17.6936 229.113 17.9186C231.063 17.7686 232.712 17.5436 234.061 17.2437C233.762 17.0937 233.462 16.9437 233.162 16.7937V16.7188Z" fill="#1863BE"/>
<path d="M236.085 15.5931C235.486 15.968 234.511 16.343 233.236 16.6429C233.536 16.7929 233.836 16.9429 234.136 17.0929C235.411 16.7929 236.385 16.4179 237.06 15.968C236.76 15.818 236.385 15.668 236.085 15.5181V15.5931Z" fill="#1863BE"/>
<path d="M212.619 17.3937C209.621 17.2437 206.472 17.0187 203.323 16.7188C203.323 16.8687 203.473 17.0187 203.548 17.1687C206.772 17.4687 209.995 17.6936 213.069 17.9186C212.919 17.7686 212.769 17.6186 212.619 17.3937Z" fill="#1863BE"/>
<path d="M157.365 8.39382C157.365 8.39382 157.89 8.24384 158.19 8.09386C156.691 7.64392 155.416 7.11899 154.142 6.66905C153.617 6.44408 153.092 6.21911 152.567 5.99414C152.267 5.99414 151.967 6.14412 151.593 6.21911C152.117 6.44408 152.642 6.66905 153.167 6.89402C154.441 7.41895 155.791 7.86889 157.29 8.39382H157.365Z" fill="#1863BE"/>
<path d="M147.994 4.1191C147.994 4.1191 148.669 3.96912 149.044 3.96912C148.294 3.3692 147.919 2.84427 147.919 2.31934C147.544 2.31934 147.244 2.39433 146.869 2.46932C146.869 2.99425 147.319 3.51918 148.069 4.19409L147.994 4.1191Z" fill="#1863BE"/>
<path d="M237.96 14.6184C237.96 14.6184 237.285 14.3184 236.985 14.1685C236.985 14.6934 236.76 15.1433 236.161 15.5183C236.46 15.6683 236.835 15.8182 237.135 15.9682C237.735 15.5183 238.035 15.0683 237.96 14.5434V14.6184Z" fill="#1863BE"/>
<path d="M152.492 5.99418C150.993 5.31927 149.868 4.64435 149.118 4.04443C148.744 4.04443 148.444 4.19441 148.069 4.19441C148.819 4.79433 150.018 5.46925 151.518 6.21915C151.817 6.14416 152.117 6.06917 152.492 5.99418Z" fill="#1863BE"/>
<path d="M0.299805 180.496C0.449748 182.671 0.599691 184.846 0.824606 187.02L0.299805 180.496Z" fill="#1863BE"/>
<path d="M0.299886 179.746L0 169.772C0 173.072 0 176.447 0.224915 179.746H0.299886Z" fill="#1863BE"/>
<path d="M63.051 302.73C61.9265 301.83 60.8769 300.93 59.8273 299.956C60.502 300.48 61.1018 301.08 61.7765 301.605L63.126 302.655L63.051 302.73Z" fill="#1863BE"/>
<path d="M59.3774 299.655C59.3774 299.655 59.6024 299.879 59.7523 299.954C59.6024 299.879 59.5274 299.73 59.3774 299.655Z" fill="#1863BE"/>
<path d="M117.481 332.501C116.656 332.201 115.831 331.976 115.081 331.676C115.756 331.901 116.431 332.126 117.106 332.351L117.555 332.501H117.481Z" fill="#1863BE"/>
<path d="M213.594 335.201C213.594 335.201 213.294 335.275 213.144 335.35C213.294 335.35 213.444 335.275 213.594 335.201Z" fill="#1863BE"/>
<path d="M210.445 336.026C211.345 335.801 212.244 335.576 213.069 335.351C211.87 335.651 210.595 336.026 209.396 336.326L210.445 336.101V336.026Z" fill="#1863BE"/>
<path d="M331.224 128.753C331.224 128.753 331.074 128.078 330.924 127.703C327.626 115.78 323.052 104.306 317.43 93.4326C317.28 93.1327 317.13 92.8327 316.905 92.5327C311.207 81.7342 304.385 71.4605 296.513 62.0868C296.288 61.7868 296.063 61.5618 295.838 61.2619C287.966 51.8881 279.119 43.4142 269.448 35.8402C269.148 35.6153 268.923 35.3903 268.623 35.1653C258.877 27.6663 248.306 21.2172 237.06 15.9679C236.76 15.8179 236.46 15.6679 236.085 15.5179C225.065 10.4186 213.444 6.5191 201.224 3.81945C201.299 3.74446 201.374 3.66947 201.374 3.59448C213.819 5.84419 225.664 9.44371 236.91 14.1681C237.21 14.3181 237.585 14.468 237.885 14.618C249.355 19.5674 260.151 25.6416 270.048 32.7656C270.347 32.9906 270.647 33.1406 270.872 33.3656C280.768 40.5646 289.765 48.8135 297.787 57.8873C298.012 58.1873 298.237 58.4122 298.462 58.6372C306.409 67.786 313.381 77.6847 319.229 88.3333C319.379 88.6333 319.529 88.9332 319.754 89.2332C325.527 99.8818 330.175 111.205 333.548 122.979C333.623 123.279 333.773 123.654 333.848 124.029C334.898 127.778 335.798 131.603 336.622 135.502L336.023 132.352C321.553 66.9611 268.248 14.3181 198.3 3.06955C198.3 3.06955 197.475 3.51949 195.826 3.4445C193.427 3.36951 190.278 2.76959 188.853 2.24466C188.404 2.01969 188.179 1.86971 188.104 1.71973C187.579 1.71973 187.054 1.56975 186.529 1.56975C96.1135 -7.27908 14.0947 56.4625 1.5744 146.751C0.599772 154.1 0 161.374 0 168.648V169.848C0 165.348 0.224915 160.849 0.599772 156.274C0.599772 155.899 0.599772 155.524 0.674744 155.149C0.899659 152.525 1.19954 149.9 1.5744 147.276C2.99886 137.002 5.32298 127.028 8.47179 117.504C8.62173 117.13 8.6967 116.83 8.84664 116.455C12.8951 104.531 18.1431 93.2077 24.5157 82.709C24.6656 82.4091 24.8906 82.1091 25.0405 81.8092C31.4881 71.3106 39.0602 61.7118 47.532 52.938C47.7569 52.713 47.9818 52.413 48.2817 52.1881C56.8284 43.4892 66.1999 35.7652 76.396 29.0161C76.6959 28.7912 76.9958 28.6412 77.2957 28.4162C87.4918 21.8171 98.4377 16.1928 109.908 11.8434C110.208 11.6934 110.583 11.6184 110.883 11.4684C122.354 7.19401 134.424 4.11941 146.794 2.39464C147.169 2.39464 147.469 2.31965 147.844 2.24466C159.914 0.669869 172.36 0.294918 184.955 1.41977C184.955 1.49476 185.03 1.64474 185.18 1.71973C172.884 1.11981 160.814 1.86971 148.968 3.89444C148.594 3.89444 148.294 4.04442 147.919 4.04442C135.848 6.21914 124.078 9.74367 112.832 14.3931C112.532 14.543 112.232 14.693 111.858 14.768C100.687 19.4924 90.0408 25.4166 80.0696 32.3907C79.7697 32.6157 79.4698 32.7656 79.2449 32.9906C69.3487 40.0397 60.1272 48.0636 51.8053 57.0624C51.5804 57.2874 51.3555 57.5874 51.1306 57.8123C42.8088 66.8111 35.4615 76.7098 29.089 87.3584C28.939 87.6584 28.7141 87.9584 28.5642 88.2583C22.2666 98.9069 17.0935 110.38 13.12 122.379C13.0451 122.754 12.8951 123.054 12.8201 123.429C9.7463 133.027 7.42218 143.001 5.99772 153.275C5.62287 155.899 5.32298 158.524 5.09807 161.149C5.09807 161.524 5.09807 161.899 5.02309 162.274C3.89852 175.097 4.27338 187.695 5.92275 199.844C5.92275 200.219 5.99772 200.519 6.0727 200.893C7.79704 213.042 10.8709 224.74 15.1443 235.914C15.2942 236.214 15.3692 236.514 15.5191 236.889C19.8675 247.987 25.3404 258.486 31.8629 268.235C32.0129 268.535 32.2378 268.759 32.3877 269.059C38.9852 278.733 46.6323 287.732 55.1791 295.681C55.404 295.906 55.7039 296.131 55.9288 296.356C57.0534 297.406 58.2529 298.456 59.4524 299.505C58.3279 298.531 57.2033 297.556 56.0787 296.506C55.8538 296.281 55.6289 296.056 55.329 295.831C46.7823 287.882 39.1352 278.958 32.5377 269.209C32.3127 268.909 32.1628 268.684 31.9379 268.385C25.4154 258.636 19.9424 248.137 15.5941 237.039C15.4441 236.739 15.3692 236.439 15.2192 236.064C10.9458 224.965 7.94698 213.192 6.22264 201.043C6.22264 200.668 6.14767 200.369 6.0727 199.994C4.42332 187.845 4.04846 175.247 5.17304 162.424C5.17304 162.049 5.17304 161.674 5.24801 161.299C5.47292 158.674 5.77281 156.049 6.14767 153.425C7.57213 143.151 9.89625 133.177 12.9701 123.579C13.0451 123.204 13.195 122.904 13.27 122.529C17.2435 110.53 22.4165 99.0569 28.7141 88.4083C28.864 88.1083 29.089 87.8084 29.2389 87.5084C35.5365 76.8598 42.9587 66.9611 51.2056 57.9623C51.4305 57.7373 51.6554 57.4374 51.8803 57.2124C60.2022 48.2136 69.4237 40.1897 79.3199 33.1406C79.6198 32.9156 79.9197 32.7656 80.1446 32.5407C90.1158 25.5666 100.762 19.6424 111.933 14.843C112.232 14.693 112.532 14.543 112.907 14.468C124.078 9.74367 135.848 6.29413 147.919 4.04442C148.219 4.04442 148.594 3.89444 148.968 3.89444C160.739 1.86971 172.809 1.04482 185.105 1.64474C185.255 1.71973 185.48 1.86971 185.705 2.01969C174.384 2.01969 163.213 3.29452 152.342 5.84419C152.042 5.84419 151.742 5.99417 151.368 6.06916C140.197 8.7688 129.326 12.8183 118.98 17.9926C118.68 18.1426 118.38 18.2925 118.08 18.4425C107.734 23.6918 97.8379 30.066 88.5414 37.415C88.2415 37.64 88.0166 37.865 87.7167 38.0149C78.4952 45.439 69.9485 53.9128 62.1514 63.1366C61.9265 63.4366 61.7016 63.6616 61.4767 63.9615C53.7546 73.2603 46.8572 83.4589 40.8595 94.3325C40.7096 94.6325 40.5596 94.9324 40.3347 95.2324C34.4119 106.106 29.5388 117.729 25.7152 129.878C25.6403 130.253 25.4903 130.553 25.4154 130.928C22.4915 140.601 20.2423 150.65 18.8179 160.924C18.443 163.548 18.1431 166.173 17.9182 168.798C17.9182 169.173 17.9182 169.548 17.8432 169.923C16.7187 182.746 16.8686 195.194 18.2931 207.193C18.2931 207.568 18.368 207.868 18.443 208.242C19.9424 220.241 22.6414 231.714 26.39 242.663C26.465 242.963 26.6149 243.263 26.6899 243.563C30.5134 254.436 35.4615 264.635 41.3843 274.009C41.5342 274.309 41.6842 274.534 41.9091 274.834C47.9068 284.207 54.8042 292.681 62.6013 300.255C62.8262 300.48 63.0511 300.705 63.276 300.93C71.148 308.429 79.8447 314.953 89.2161 320.278C89.516 320.428 89.741 320.578 90.0408 320.728C92.365 322.002 94.6891 323.202 97.0882 324.402L97.8379 324.777C95.2139 323.577 92.7398 322.227 90.1908 320.878C89.8909 320.728 89.666 320.578 89.3661 320.428C79.9947 315.103 71.298 308.579 63.5009 301.08C63.276 300.855 63.0511 300.63 62.8262 300.48C55.0291 292.981 48.1317 284.432 42.209 275.134C42.059 274.834 41.9091 274.609 41.6842 274.309C35.7614 264.935 30.8883 254.736 26.9898 243.938C26.9148 243.638 26.7648 243.338 26.6899 243.038C22.9413 232.164 20.2423 220.691 18.7429 208.692C18.7429 208.317 18.6679 208.018 18.5929 207.643C17.1685 195.644 17.0185 183.121 18.1431 170.372C18.1431 169.998 18.1431 169.623 18.2181 169.248C18.443 166.623 18.7429 163.998 19.1177 161.374C20.5422 151.1 22.7914 141.051 25.7152 131.378C25.7902 131.003 25.9402 130.703 26.0151 130.328C29.7637 118.179 34.7118 106.556 40.5596 95.6823C40.7096 95.3824 40.8595 95.0824 41.0844 94.7824C47.0072 83.9089 53.9046 73.7102 61.6266 64.4115C61.8515 64.1115 62.0765 63.8865 62.3014 63.5866C70.0234 54.2878 78.6452 45.8139 87.7917 38.3899C88.0916 38.1649 88.3165 37.9399 88.6164 37.79C97.8379 30.3659 107.734 23.9918 118.08 18.7425C118.38 18.5925 118.68 18.4425 118.98 18.2925C129.326 13.1182 140.197 9.06876 151.293 6.36912C151.592 6.36912 151.892 6.21914 152.267 6.14415C163.138 3.59448 174.234 2.24466 185.555 2.24466C185.63 2.24466 185.705 2.24466 185.854 2.39464C186.079 2.46963 186.304 2.54462 186.604 2.6946C176.933 3.29452 167.262 5.16928 157.89 8.31886C157.59 8.39385 157.365 8.46884 157.065 8.61882C147.394 11.9184 138.023 16.4928 129.026 22.192C128.801 22.342 128.501 22.492 128.276 22.717C119.28 28.4912 110.658 35.3153 102.561 43.1893C102.336 43.4142 102.111 43.6392 101.886 43.8642C93.7894 51.7381 86.2923 60.587 79.4699 70.1857C79.2449 70.4857 79.095 70.7106 78.8701 71.0106C72.0477 80.6843 65.9 91.1829 60.577 102.281C60.4271 102.581 60.2771 102.881 60.1272 103.256C54.8792 114.43 50.3809 126.203 46.9322 138.427C46.8572 138.802 46.7073 139.102 46.6323 139.477C43.9333 149.225 41.7592 159.349 40.4097 169.623C40.0348 172.247 39.7349 174.872 39.435 177.497C39.435 177.871 39.435 178.246 39.3601 178.621C38.0856 191.37 38.0106 203.743 38.9852 215.592C38.9852 215.891 38.9852 216.266 39.0602 216.566C40.1098 228.415 42.209 239.663 45.2079 250.237C45.2828 250.537 45.3578 250.837 45.5077 251.137C48.5816 261.71 52.63 271.534 57.5782 280.533C57.7281 280.758 57.878 281.058 58.028 281.283C62.9761 290.207 68.7489 298.306 75.3464 305.355C75.4964 305.58 75.7213 305.73 75.8712 305.955C82.4687 312.929 89.8159 318.928 97.7629 323.727C97.9878 323.877 98.2127 324.027 98.4377 324.102C103.686 327.177 109.159 329.726 114.856 331.826C109.234 329.801 103.836 327.252 98.6626 324.252C98.4377 324.102 98.2127 323.952 97.9878 323.877C90.0408 319.078 82.7686 313.079 76.1711 306.105C76.0212 305.88 75.7962 305.73 75.6463 305.505C69.1238 298.456 63.351 290.357 58.4778 281.433C58.3279 281.208 58.1779 280.908 58.028 280.683C53.1548 271.684 49.1064 261.86 46.0325 251.287C45.9576 250.987 45.8826 250.687 45.7327 250.387C42.7338 239.813 40.6346 228.565 39.66 216.716C39.66 216.416 39.66 216.041 39.585 215.742C38.6104 203.893 38.6853 191.52 39.9598 178.771C39.9598 178.396 39.9598 178.021 40.0348 177.647C40.3347 175.022 40.6346 172.397 41.0094 169.773C42.4339 159.499 44.5331 149.45 47.2321 139.627C47.3071 139.252 47.457 138.952 47.532 138.577C50.9807 126.353 55.404 114.58 60.652 103.406C60.8019 103.106 60.9519 102.806 61.1018 102.431C66.4248 91.3329 72.4975 80.8343 79.3199 71.1606C79.5448 70.8606 79.6948 70.6356 79.9197 70.3357C86.7421 60.6619 94.2393 51.8131 102.261 43.9392C102.486 43.7142 102.711 43.4892 102.936 43.2642C110.958 35.4653 119.58 28.5662 128.501 22.792C128.726 22.642 129.026 22.492 129.251 22.267C138.248 16.5678 147.619 11.9934 157.14 8.69381C157.44 8.61882 157.665 8.46884 157.965 8.39385C167.337 5.24427 176.858 3.29452 186.529 2.6946C186.904 2.84458 187.354 2.91957 187.804 3.06955C180.157 4.1944 172.51 6.74407 165.012 10.4186C164.787 10.4936 164.563 10.6436 164.338 10.7185C156.616 14.543 149.118 19.7174 141.846 25.8665C141.621 26.0165 141.396 26.2415 141.246 26.3915C133.974 32.6157 127.002 39.9647 120.404 48.2886C120.179 48.5136 120.029 48.7385 119.805 48.9635C113.207 57.2874 107.059 66.5112 101.362 76.4849C101.212 76.7848 101.062 77.0848 100.912 77.3098C95.2888 87.2834 90.1158 98.082 85.6175 109.406C85.4676 109.705 85.3926 110.08 85.2427 110.38C80.7444 121.779 76.9208 133.702 73.847 146.076C73.772 146.451 73.697 146.751 73.5471 147.126C71.148 156.949 69.1238 167.073 67.7743 177.347C67.3994 179.971 67.0995 182.596 66.7997 185.221C66.7997 185.595 66.7247 185.97 66.6497 186.27C65.3002 199.019 64.8504 211.317 65.3002 223.016C65.3002 223.315 65.3002 223.69 65.3002 223.99C65.7501 235.614 67.0995 246.712 69.1238 257.061C69.1238 257.361 69.2737 257.661 69.2737 257.961C71.3729 268.235 74.2968 277.758 77.8954 286.382C77.9704 286.607 78.1204 286.907 78.1953 287.132C81.794 295.681 86.1423 303.33 91.0904 309.929C91.2404 310.154 91.3903 310.304 91.5403 310.529C96.4884 317.053 102.111 322.527 108.259 326.802C108.409 326.952 108.634 327.027 108.784 327.177C114.482 331.001 120.554 333.851 127.077 335.576H127.302C120.779 333.926 114.706 331.151 109.084 327.252C108.934 327.102 108.709 327.027 108.559 326.877C102.486 322.602 96.9382 317.128 91.9901 310.604C91.8402 310.454 91.6902 310.229 91.5403 310.079C86.6671 303.48 82.3937 295.831 78.7951 287.282C78.7201 287.057 78.5702 286.757 78.4952 286.532C74.9716 277.908 72.0477 268.385 70.0234 258.111C70.0234 257.811 69.8735 257.511 69.8735 257.211C67.8493 246.937 66.4998 235.839 66.0499 224.215C66.0499 223.915 66.0499 223.54 66.0499 223.241C65.6751 211.542 66.0499 199.244 67.4744 186.57C67.4744 186.195 67.5494 185.82 67.6243 185.52C67.9242 182.896 68.2241 180.271 68.599 177.647C70.0234 167.373 71.9727 157.249 74.3718 147.426C74.4468 147.051 74.5217 146.751 74.6717 146.376C77.7455 134.002 81.5691 122.079 86.0673 110.68C86.2173 110.38 86.2923 110.005 86.4422 109.705C90.9405 98.382 96.0386 87.5834 101.661 77.5347C101.811 77.2348 101.961 76.9348 102.111 76.7098C107.734 66.7362 113.882 57.5124 120.404 49.1885C120.554 48.9635 120.779 48.7385 120.929 48.5136C127.452 40.2646 134.424 32.9156 141.621 26.6164C141.846 26.4665 141.996 26.2415 142.221 26.0915C149.418 19.8673 156.915 14.768 164.563 10.8685C164.787 10.7185 165.012 10.6436 165.237 10.5686C172.66 6.89405 180.232 4.34438 187.804 3.14454C188.254 3.29452 188.778 3.36951 189.303 3.51949C184.055 5.24427 178.732 8.24387 173.484 12.4433C173.334 12.5933 173.184 12.6683 173.034 12.8183C167.636 17.1677 162.313 22.792 157.065 29.4661C156.915 29.691 156.766 29.841 156.616 30.066C151.368 36.8151 146.344 44.6141 141.471 53.2379C141.321 53.4629 141.171 53.7629 141.021 53.9878C136.148 62.6867 131.575 72.2854 127.227 82.5591C127.077 82.859 127.002 83.159 126.852 83.4589C122.578 93.8076 118.605 104.831 115.006 116.38C114.931 116.68 114.781 117.055 114.706 117.354C111.183 128.903 108.034 141.051 105.335 153.5C105.26 153.875 105.185 154.25 105.11 154.55C103.011 164.448 101.212 174.647 99.7871 184.921C99.4123 187.545 99.1124 190.17 98.7375 192.795C98.7375 193.169 98.6626 193.544 98.5876 193.844C97.0882 206.518 96.2635 218.741 96.0386 230.29C96.0386 230.59 96.0386 230.964 96.0386 231.264C95.8137 242.738 96.2635 253.611 97.2381 263.66C97.2381 263.96 97.2381 264.26 97.3131 264.485C98.2877 274.459 99.8621 283.683 101.961 291.931C101.961 292.156 102.111 292.381 102.111 292.606C104.21 300.78 106.834 308.054 109.908 314.279C109.983 314.428 110.058 314.653 110.208 314.803C113.282 320.878 116.881 325.902 120.854 329.726C120.929 329.801 121.079 329.951 121.154 330.026C125.202 333.701 129.626 336.176 134.424 337.3C134.499 337.3 134.649 337.3 134.724 337.3H134.949C134.949 337.3 134.724 337.3 134.574 337.3C129.851 336.251 125.427 333.776 121.454 330.101C121.379 330.026 121.229 329.876 121.079 329.801C117.181 326.052 113.657 321.028 110.583 314.953C110.508 314.803 110.433 314.578 110.358 314.428C107.359 308.279 104.81 301.005 102.711 292.831C102.711 292.606 102.561 292.381 102.561 292.156C100.537 283.908 99.0374 274.684 98.0628 264.71C98.0628 264.41 98.0628 264.11 97.9878 263.885C97.0882 253.836 96.7133 242.963 96.9382 231.489C96.9382 231.189 96.9382 230.814 96.9382 230.515C97.1631 218.966 98.0628 206.818 99.4873 194.069C99.4873 193.694 99.5622 193.319 99.6372 193.019C99.9371 190.395 100.312 187.77 100.612 185.146C102.036 174.872 103.836 164.673 105.86 154.775C105.86 154.4 106.01 154.1 106.085 153.725C108.709 141.276 111.858 129.128 115.381 117.579C115.456 117.279 115.606 116.905 115.681 116.605C119.205 105.056 123.178 94.0326 127.452 83.6839C127.602 83.384 127.677 83.084 127.826 82.784C132.1 72.5104 136.673 62.9117 141.471 54.1378C141.621 53.9128 141.771 53.6129 141.846 53.3879C146.644 44.6891 151.667 36.8901 156.84 30.141C156.99 29.916 157.14 29.766 157.29 29.5411C162.463 22.8669 167.711 17.2427 173.109 12.8183C173.259 12.6683 173.409 12.5933 173.559 12.4433C178.732 8.24387 183.98 5.16928 189.153 3.4445C189.678 3.51949 190.278 3.66947 190.803 3.74446C188.179 5.91918 185.405 9.44371 182.631 14.1681C182.556 14.3181 182.481 14.468 182.406 14.543C179.482 19.4174 176.558 25.4916 173.559 32.5407C173.484 32.7656 173.409 32.9156 173.334 33.1406C170.335 40.2646 167.337 48.4386 164.413 57.5124C164.338 57.7373 164.263 58.0373 164.188 58.2623C161.264 67.3361 158.34 77.2348 155.566 87.8084C155.566 88.1083 155.416 88.4083 155.341 88.7083C152.567 99.2819 149.868 110.605 147.319 122.379C147.319 122.679 147.169 123.054 147.094 123.354C144.545 135.127 142.146 147.351 140.047 159.949C140.047 160.324 139.897 160.699 139.897 160.999C138.173 170.972 136.598 181.171 135.174 191.445C134.799 194.069 134.424 196.694 134.124 199.319C134.124 199.694 134.049 200.069 133.974 200.369C132.325 213.042 131.05 225.115 130.151 236.589C130.151 236.889 130.151 237.264 130.076 237.564C129.176 248.962 128.576 259.611 128.276 269.434C128.276 269.734 128.276 270.034 128.276 270.259C128.051 280.008 128.126 288.932 128.501 296.881C128.501 297.106 128.501 297.331 128.501 297.556C128.876 305.43 129.626 312.329 130.675 318.103C130.675 318.253 130.675 318.403 130.75 318.628C131.8 324.327 133.149 328.902 134.799 332.276C134.799 332.351 134.874 332.501 134.949 332.576C136.598 335.801 138.547 337.825 140.797 338.425C140.797 338.425 140.947 338.425 141.021 338.425C141.096 338.425 141.246 338.425 141.321 338.425H141.471C141.471 338.425 141.321 338.425 141.171 338.425H141.021C138.847 337.825 136.973 335.876 135.399 332.651C135.399 332.576 135.324 332.426 135.249 332.351C133.674 329.052 132.4 324.477 131.425 318.703C131.425 318.553 131.425 318.403 131.35 318.178C130.376 312.404 129.701 305.505 129.326 297.631C129.326 297.406 129.326 297.181 129.326 296.956C128.951 289.007 128.951 280.083 129.251 270.334C129.251 270.034 129.251 269.809 129.251 269.509C129.551 259.686 130.151 249.037 131.125 237.639C131.125 237.339 131.125 236.964 131.2 236.664C132.175 225.265 133.449 213.192 135.099 200.444C135.099 200.069 135.174 199.694 135.249 199.394C135.549 196.769 135.923 194.219 136.298 191.52C137.723 181.246 139.297 171.047 141.021 161.074C141.021 160.699 141.171 160.324 141.246 160.024C143.421 147.501 145.745 135.202 148.219 123.429C148.219 123.054 148.369 122.754 148.444 122.379C150.918 110.605 153.617 99.3568 156.391 88.7083C156.466 88.4083 156.541 88.1083 156.616 87.8084C159.39 77.2348 162.238 67.3361 165.087 58.1873C165.162 57.8873 165.237 57.6623 165.312 57.4374C168.236 48.4386 171.16 40.1897 174.009 33.0656C174.084 32.8406 174.159 32.6906 174.234 32.4657C177.158 25.3416 180.007 19.2674 182.856 14.3931C182.931 14.2431 183.006 14.0931 183.081 13.9431C185.854 9.29373 188.478 5.7692 191.102 3.51949C191.702 3.59448 192.302 3.74446 192.827 3.81945C192.902 6.44411 192.827 10.3436 192.602 15.4429C192.602 15.5929 192.602 15.7429 192.602 15.8929C192.302 21.1422 191.852 27.5913 191.252 35.0903C191.252 35.3153 191.252 35.5403 191.252 35.7652C190.653 43.2642 189.828 51.8131 188.853 61.1119C188.853 61.4119 188.853 61.6368 188.778 61.9368C187.804 71.3105 186.754 81.5092 185.48 92.3078C185.48 92.6077 185.48 92.9077 185.405 93.2077C184.205 104.081 182.856 115.555 181.356 127.478C181.356 127.853 181.281 128.153 181.206 128.528C179.707 140.451 178.132 152.825 176.483 165.498C176.483 165.873 176.408 166.248 176.333 166.623C174.984 176.672 173.634 186.87 172.21 197.219C171.835 199.844 171.46 202.468 171.085 205.093C171.085 205.468 171.01 205.843 170.935 206.143C169.136 218.816 167.411 230.814 165.687 242.138C165.687 242.438 165.612 242.738 165.537 243.113C163.888 254.361 162.238 264.86 160.664 274.534C160.664 274.834 160.589 275.059 160.514 275.359C158.94 284.957 157.515 293.656 156.166 301.305C156.166 301.53 156.166 301.755 156.016 301.98C154.666 309.629 153.392 316.228 152.267 321.628C152.267 321.777 152.267 321.927 152.192 322.077C151.068 327.477 150.093 331.676 149.268 334.676C149.268 334.751 149.268 334.826 149.268 334.901C148.444 337.75 147.769 339.4 147.244 339.55H147.394C147.394 339.55 147.394 339.55 147.469 339.55C148.069 339.4 148.819 337.825 149.718 334.901C149.718 334.826 149.718 334.751 149.718 334.676C150.618 331.751 151.667 327.477 152.867 322.152C152.867 322.002 152.867 321.852 152.942 321.702C154.142 316.228 155.416 309.629 156.84 302.055C156.84 301.83 156.915 301.605 156.99 301.38C158.415 293.731 159.914 285.032 161.489 275.434C161.489 275.134 161.564 274.909 161.639 274.609C163.213 265.01 164.862 254.511 166.587 243.263C166.587 242.963 166.662 242.663 166.737 242.288C168.461 230.964 170.185 218.966 171.985 206.293C171.985 205.918 172.06 205.543 172.135 205.243C172.51 202.693 172.884 200.069 173.259 197.369C174.684 187.095 176.033 176.822 177.383 166.773C177.383 166.398 177.458 166.023 177.533 165.648C179.182 153.05 180.756 140.676 182.181 128.678C182.181 128.303 182.256 128.003 182.331 127.628C183.755 115.705 185.105 104.231 186.229 93.3576C186.229 93.0577 186.229 92.7577 186.304 92.4578C187.504 81.6592 188.553 71.4605 189.453 62.0868C189.453 61.7868 189.453 61.5618 189.453 61.2619C190.353 51.8881 191.102 43.4142 191.627 35.9152C191.627 35.6902 191.627 35.4653 191.627 35.2403C192.152 27.7413 192.602 21.2921 192.752 16.0428C192.752 15.8929 192.752 15.7429 192.752 15.5929C192.902 10.4936 192.977 6.59409 192.752 3.96943C193.352 4.04442 193.951 4.11941 194.551 4.1944C197.475 7.11902 200.099 11.3935 202.423 16.7178C202.423 16.8677 202.573 17.0177 202.648 17.1677C205.047 22.717 207.071 29.4661 208.871 37.1901C208.871 37.415 208.946 37.64 209.021 37.865C210.745 45.6639 212.17 54.4378 213.219 63.9615C213.219 64.2615 213.219 64.4864 213.294 64.7864C214.344 74.3851 215.093 84.8088 215.468 95.7573C215.468 96.0573 215.468 96.3572 215.468 96.7322C215.843 107.756 215.843 119.379 215.468 131.453C215.468 131.828 215.468 132.128 215.468 132.502C215.093 144.576 214.344 157.024 213.219 169.698C213.219 170.073 213.219 170.447 213.144 170.822C212.244 180.946 211.045 191.145 209.62 201.493C209.246 204.118 208.871 206.743 208.496 209.367C208.496 209.742 208.421 210.117 208.346 210.417C206.397 223.016 204.223 235.014 201.748 246.262C201.748 246.562 201.599 246.862 201.524 247.237C199.049 258.411 196.351 268.759 193.502 278.283C193.427 278.583 193.352 278.808 193.277 279.108C190.428 288.557 187.354 297.031 184.205 304.53C184.13 304.755 184.055 304.98 183.905 305.13C180.756 312.554 177.533 318.928 174.234 324.102C174.159 324.252 174.009 324.402 173.934 324.552C170.635 329.726 167.262 333.626 163.963 336.326C163.888 336.401 163.813 336.476 163.663 336.551C160.364 339.175 156.99 340.45 153.767 340.3C153.692 340.3 153.542 340.3 153.467 340.3C153.392 340.3 153.242 340.3 153.167 340.3H153.317C153.317 340.3 153.542 340.3 153.617 340.3C153.692 340.3 153.842 340.3 153.917 340.3C157.215 340.45 160.589 339.175 164.038 336.551C164.113 336.551 164.263 336.401 164.338 336.326C167.711 333.701 171.16 329.726 174.534 324.552C174.609 324.402 174.759 324.252 174.834 324.102C178.207 318.928 181.506 312.554 184.73 305.13C184.805 304.905 184.88 304.68 185.03 304.53C188.254 297.031 191.252 288.557 194.176 279.108C194.251 278.808 194.326 278.583 194.401 278.283C197.325 268.834 200.024 258.411 202.498 247.237C202.498 246.937 202.648 246.637 202.723 246.262C205.197 235.089 207.446 223.091 209.321 210.417C209.321 210.042 209.396 209.667 209.471 209.367C209.845 206.818 210.22 204.193 210.595 201.493C212.02 191.22 213.144 180.946 214.119 170.822C214.119 170.447 214.119 170.073 214.194 169.698C215.318 157.024 216.068 144.501 216.443 132.502C216.443 132.128 216.443 131.828 216.443 131.453C216.743 119.379 216.743 107.756 216.368 96.7322C216.368 96.4322 216.368 96.1323 216.368 95.7573C215.918 84.7338 215.168 74.3851 214.044 64.7114C214.044 64.4115 214.044 64.1865 213.969 63.8865C212.844 54.2878 211.345 45.514 209.546 37.715C209.546 37.49 209.471 37.265 209.396 37.0401C207.596 29.3161 205.422 22.567 202.948 17.0177C202.948 16.8677 202.798 16.7178 202.723 16.5678C200.324 11.1685 197.625 6.96904 194.626 3.96943C195.226 3.96943 195.826 4.04442 196.351 4.11941C201.973 7.269 207.146 11.6934 212.02 17.2427C212.17 17.3927 212.319 17.5426 212.469 17.7676C217.418 23.5419 221.916 30.4409 226.039 38.3899C226.114 38.6149 226.264 38.8398 226.414 39.0648C230.463 47.0138 233.986 55.9376 237.06 65.6863C237.135 65.9863 237.21 66.2112 237.285 66.5112C240.284 76.2599 242.758 86.8335 244.707 97.932C244.707 98.232 244.782 98.6069 244.857 98.9069C246.731 110.08 248.081 121.779 248.756 133.927C248.756 134.302 248.756 134.602 248.756 134.977C249.43 147.126 249.43 159.649 248.756 172.397C248.756 172.772 248.756 173.147 248.756 173.522C248.231 183.646 247.256 193.919 245.832 204.193C245.457 206.818 245.082 209.442 244.632 212.067C244.632 212.442 244.482 212.817 244.482 213.117C242.383 225.715 239.759 237.714 236.535 248.812C236.46 249.112 236.385 249.412 236.235 249.787C233.012 260.886 229.338 271.159 225.215 280.608C225.065 280.908 224.99 281.133 224.84 281.433C220.716 290.732 216.143 299.13 211.27 306.48C211.12 306.704 210.97 306.854 210.82 307.079C205.947 314.353 200.774 320.578 195.376 325.602C195.226 325.752 195.076 325.902 194.926 326.052C189.528 331.001 183.905 334.826 178.132 337.3C177.982 337.3 177.833 337.45 177.608 337.525C171.91 339.925 166.137 340.975 160.289 340.675H160.514C166.437 340.975 172.285 339.925 177.982 337.525C178.132 337.525 178.282 337.375 178.507 337.3C184.355 334.826 190.053 331.076 195.526 326.052C195.676 325.902 195.826 325.752 195.976 325.602C201.449 320.578 206.697 314.353 211.57 307.079C211.72 306.854 211.87 306.629 212.02 306.48C216.893 299.13 221.541 290.732 225.664 281.433C225.814 281.133 225.889 280.908 226.039 280.608C230.163 271.234 233.911 260.961 237.135 249.862C237.21 249.562 237.285 249.262 237.435 248.887C240.659 237.714 243.283 225.79 245.382 213.192C245.382 212.817 245.532 212.442 245.532 212.142C245.982 209.592 246.357 206.968 246.731 204.268C248.156 193.994 249.13 183.721 249.655 173.597C249.655 173.222 249.655 172.847 249.655 172.472C250.255 159.724 250.255 147.201 249.58 135.052C249.58 134.677 249.58 134.377 249.58 134.002C248.831 121.854 247.481 110.155 245.607 98.9819C245.607 98.6819 245.532 98.382 245.457 98.007C243.508 86.9085 240.959 76.3349 237.885 66.5862C237.81 66.2862 237.735 66.0612 237.585 65.7613C234.511 56.0126 230.837 47.0887 226.789 39.1398C226.639 38.9148 226.564 38.6899 226.414 38.4649C222.291 30.5159 217.717 23.6168 212.694 17.8426C212.544 17.6926 212.394 17.5426 212.244 17.3177C207.371 11.7684 202.048 7.34399 196.351 4.1944C196.5 4.1944 196.65 4.1944 196.8 4.1944C197.175 4.1944 197.55 4.1944 197.925 4.1944C205.947 7.41898 213.594 11.9184 220.716 17.5426C220.941 17.6926 221.166 17.8426 221.316 18.0676C228.588 23.9168 235.336 30.8909 241.483 38.8398C241.633 39.0648 241.858 39.2898 242.008 39.5147C248.156 47.5387 253.629 56.5375 258.427 66.2862C258.577 66.5862 258.727 66.8111 258.802 67.1111C263.6 76.9348 267.648 87.5084 271.022 98.6819C271.097 98.9819 271.247 99.2819 271.322 99.6568C274.621 110.83 277.095 122.604 278.744 134.752C278.744 135.127 278.819 135.427 278.894 135.802C280.469 147.95 281.218 160.549 281.068 173.297C281.068 173.672 281.068 174.047 281.068 174.422C280.843 184.546 280.094 194.819 278.669 205.093C278.294 207.718 277.92 210.342 277.47 212.892C277.47 213.267 277.32 213.642 277.32 213.942C275.146 226.54 271.997 238.463 268.173 249.637C268.098 249.937 267.948 250.237 267.873 250.612C263.975 261.71 259.327 271.984 254.079 281.283C253.929 281.583 253.779 281.808 253.629 282.108C248.306 291.406 242.383 299.73 236.01 307.079C235.861 307.304 235.636 307.529 235.486 307.679C229.038 314.878 222.066 321.103 214.794 326.052C214.569 326.202 214.344 326.352 214.194 326.502C206.847 331.451 199.124 335.126 191.177 337.525C190.953 337.525 190.728 337.675 190.503 337.75C184.505 339.475 178.432 340.525 172.21 340.75H172.585C178.732 340.525 184.805 339.475 190.803 337.75C191.028 337.75 191.252 337.6 191.477 337.525C199.499 335.126 207.221 331.376 214.644 326.502C214.868 326.352 215.093 326.202 215.243 326.052C222.591 321.103 229.563 314.878 236.085 307.679C236.235 307.454 236.46 307.304 236.61 307.079C243.058 299.805 249.056 291.406 254.378 282.108C254.528 281.808 254.678 281.583 254.828 281.283C260.076 271.909 264.8 261.635 268.698 250.612C268.773 250.312 268.923 250.012 268.998 249.637C272.822 238.538 275.97 226.54 278.144 213.942C278.144 213.567 278.294 213.192 278.294 212.892C278.744 210.342 279.119 207.718 279.494 205.093C280.918 194.819 281.668 184.546 281.893 174.422C281.893 174.047 281.893 173.672 281.893 173.297C282.043 160.549 281.293 148.025 279.719 135.802C279.719 135.427 279.644 135.127 279.569 134.752C277.92 122.604 275.371 110.83 272.072 99.6568C271.997 99.3568 271.847 99.0569 271.772 98.6819C268.398 87.5084 264.275 76.9348 259.477 67.1111C259.327 66.8111 259.177 66.5862 259.027 66.2862C254.154 56.5375 248.606 47.5387 242.458 39.5147C242.308 39.2898 242.083 39.0648 241.933 38.8398C235.711 30.8909 228.888 23.8418 221.616 18.0676C221.391 17.9176 221.166 17.7676 221.016 17.5426C213.819 11.9184 206.172 7.41898 198.075 4.1944C198.525 4.1944 198.975 4.1944 199.274 4.1944C209.246 7.34399 218.767 11.8434 227.689 17.3927C227.989 17.5426 228.213 17.6926 228.438 17.9176C237.585 23.6918 246.057 30.6659 253.929 38.5399C254.154 38.7648 254.378 38.9898 254.603 39.2148C262.4 47.1637 269.448 56.0876 275.67 65.8363C275.82 66.1362 276.045 66.3612 276.195 66.6612C282.418 76.4099 287.741 86.9835 292.164 98.082C292.314 98.382 292.389 98.6819 292.539 99.0569C296.887 110.23 300.336 121.929 302.81 134.077C302.81 134.452 302.96 134.752 303.035 135.127C305.359 147.276 306.709 159.799 306.859 172.547C306.859 172.922 306.859 173.297 306.859 173.672C306.934 183.796 306.334 194.069 304.909 204.343C304.534 206.968 304.16 209.592 303.71 212.142C303.71 212.517 303.56 212.892 303.485 213.192C301.161 225.79 297.787 237.789 293.439 248.887C293.289 249.187 293.214 249.487 293.064 249.862C288.641 260.961 283.243 271.234 277.095 280.608C276.945 280.908 276.72 281.133 276.57 281.433C270.347 290.732 263.375 299.13 255.653 306.48C255.428 306.704 255.203 306.929 254.978 307.079C247.256 314.353 238.934 320.578 230.088 325.602C229.863 325.752 229.563 325.902 229.338 326.052C220.491 331.001 211.12 334.826 201.449 337.3C201.149 337.3 200.924 337.45 200.624 337.525C196.201 338.65 191.702 339.4 187.129 340H187.579C192.077 339.4 196.5 338.575 200.849 337.525C201.149 337.525 201.374 337.375 201.673 337.3C211.42 334.826 220.791 331.001 229.713 326.052C229.938 325.902 230.238 325.752 230.463 325.602C239.309 320.578 247.706 314.353 255.428 307.079C255.653 306.854 255.878 306.629 256.103 306.48C263.825 299.13 270.797 290.732 277.095 281.433C277.245 281.133 277.47 280.908 277.62 280.608C283.842 271.234 289.165 260.961 293.589 249.787C293.739 249.487 293.814 249.187 293.963 248.812C298.312 237.639 301.761 225.715 304.085 213.117C304.085 212.742 304.235 212.367 304.31 212.067C304.759 209.517 305.209 206.893 305.509 204.268C306.934 193.994 307.608 183.721 307.458 173.597C307.458 173.222 307.458 172.847 307.458 172.472C307.308 159.724 305.959 147.201 303.56 135.052C303.56 134.677 303.41 134.377 303.335 134.002C300.936 121.854 297.412 110.155 292.989 98.9819C292.839 98.6819 292.764 98.382 292.614 98.007C288.191 86.9085 282.793 76.3349 276.57 66.5862C276.42 66.2862 276.195 66.0612 276.045 65.7613C269.823 56.0126 262.7 47.0887 254.903 39.1398C254.678 38.9148 254.453 38.6899 254.229 38.4649C246.357 30.5909 237.81 23.6168 228.663 17.8426C228.363 17.6926 228.138 17.5426 227.914 17.3177C218.917 11.7684 209.396 7.34399 199.424 4.1944C199.799 4.1944 200.099 4.1944 200.324 4.04442C211.72 7.04403 222.516 11.2435 232.787 16.6428C233.087 16.7927 233.386 16.9427 233.686 17.0927C244.182 22.717 253.929 29.4661 262.925 37.1901C263.15 37.415 263.45 37.64 263.675 37.865C272.672 45.6639 280.768 54.4378 288.041 64.0365C288.266 64.3365 288.416 64.5614 288.641 64.8614C295.838 74.4601 302.135 84.8838 307.383 95.9073C307.533 96.2073 307.683 96.5072 307.833 96.8072C313.006 107.831 317.13 119.529 320.129 131.528C320.204 131.903 320.278 132.203 320.353 132.577C323.277 144.651 325.002 157.099 325.377 169.848C325.377 170.223 325.377 170.597 325.377 170.972C325.676 181.096 325.152 191.295 323.727 201.643C323.352 204.268 322.977 206.893 322.453 209.517C322.453 209.892 322.303 210.267 322.228 210.567C319.829 223.166 316.23 235.164 311.432 246.412C311.282 246.712 311.132 247.012 311.057 247.387C306.259 258.561 300.336 268.909 293.514 278.358C293.289 278.658 293.139 278.883 292.914 279.183C286.016 288.557 278.219 297.106 269.673 304.53C269.448 304.755 269.148 304.98 268.923 305.13C260.301 312.554 251.005 318.853 241.034 324.102C240.734 324.252 240.434 324.402 240.209 324.552C231.512 328.977 222.441 332.576 212.994 335.201C222.516 332.576 231.737 329.052 240.434 324.552C240.734 324.402 241.034 324.252 241.258 324.102C251.23 318.928 260.601 312.554 269.223 305.13C269.448 304.905 269.748 304.68 269.973 304.53C278.519 297.031 286.391 288.557 293.214 279.108C293.439 278.808 293.589 278.583 293.814 278.283C300.636 268.834 306.559 258.411 311.357 247.312C311.507 247.012 311.657 246.712 311.732 246.337C316.455 235.164 320.129 223.166 322.528 210.492C322.528 210.117 322.678 209.742 322.753 209.442C323.202 206.893 323.652 204.268 324.027 201.568C325.452 191.295 325.976 181.021 325.676 170.897C325.676 170.522 325.676 170.148 325.676 169.773C325.227 157.099 323.502 144.576 320.578 132.502C320.503 132.128 320.428 131.828 320.353 131.453C317.355 119.379 313.231 107.756 308.058 96.7322C307.908 96.4322 307.758 96.1323 307.608 95.7573C302.36 84.7338 296.063 74.3102 288.865 64.7114C288.64 64.4115 288.491 64.1865 288.266 63.8865C280.993 54.2878 272.821 45.514 263.825 37.715C263.6 37.49 263.3 37.265 263.075 37.0401C254.004 29.3161 244.182 22.567 233.686 16.9427C233.386 16.7927 233.087 16.6428 232.787 16.4928C222.516 11.0935 211.645 6.89405 200.249 3.89444C200.474 3.89444 200.624 3.74446 200.774 3.66947C212.994 6.36912 224.615 10.2686 235.636 15.3679C235.935 15.5179 236.31 15.6679 236.61 15.8179C247.856 21.1422 258.427 27.5913 268.098 35.0903C268.398 35.3153 268.623 35.5403 268.923 35.7652C278.594 43.3392 287.441 51.8131 295.313 61.1869C295.538 61.4868 295.763 61.7118 295.988 62.0118C303.785 71.3855 310.607 81.6592 316.305 92.4578C316.455 92.7577 316.605 93.0577 316.755 93.3576C322.378 104.231 326.951 115.705 330.25 127.628L330.55 128.678C333.773 140.601 335.723 153.05 336.322 165.648C336.322 166.023 336.322 166.398 336.322 166.773C336.697 176.822 336.322 187.095 334.823 197.369C334.448 199.994 333.998 202.618 333.548 205.243C333.548 205.618 333.398 205.993 333.324 206.293C330.924 218.966 327.101 230.964 322.153 242.288C322.003 242.588 321.853 242.963 321.703 243.263C316.68 254.511 310.457 265.01 303.26 274.609C303.035 274.909 302.885 275.134 302.66 275.434C295.388 285.032 287.141 293.656 278.07 301.305C277.845 301.53 277.545 301.755 277.32 301.98C275.296 303.63 273.271 305.28 271.172 306.854C273.346 305.28 275.371 303.63 277.47 301.905C277.77 301.68 277.995 301.455 278.219 301.23C287.291 293.581 295.613 284.882 302.885 275.359C303.11 275.059 303.335 274.834 303.485 274.534C310.682 264.935 316.905 254.436 321.928 243.188C322.078 242.888 322.228 242.588 322.378 242.213C327.326 230.964 331.149 218.891 333.548 206.218C333.548 205.843 333.698 205.468 333.773 205.168C334.223 202.543 334.673 199.994 335.048 197.294C336.472 187.02 336.922 176.822 336.547 166.698C336.547 166.323 336.547 165.948 336.547 165.573C335.948 152.975 333.998 140.526 330.775 128.603L331.224 128.753Z" fill="#1863BE"/>
<path d="M271.622 307.004C270.722 307.679 269.748 308.429 268.773 309.104C269.748 308.429 270.647 307.754 271.622 307.004Z" fill="#1863BE"/>
<path d="M267.723 309.854C267.723 309.854 268.098 309.554 268.323 309.404C267.349 310.079 266.299 310.829 265.324 311.504L267.723 309.854Z" fill="#1863BE"/>
<path d="M268.773 309.029C268.773 309.029 268.398 309.254 268.248 309.404C268.398 309.254 268.623 309.179 268.773 309.029Z" fill="#1863BE"/>
<path d="M337.297 138.352L339.021 149.45C338.572 145.701 338.047 142.026 337.297 138.352Z" fill="#1863BE"/>
<path d="M336.772 135.428L337.072 136.778C336.997 136.328 336.922 135.878 336.772 135.428Z" fill="#1863BE"/>
<path d="M337.222 137.826L336.997 136.776C337.072 137.301 337.222 137.826 337.297 138.351V137.826H337.222Z" fill="#1863BE"/>
<ellipse cx="304.43" cy="339.75" rx="34.4304" ry="32" fill="#FFF5DB"/>
<ellipse cx="17.2152" cy="16.75" rx="17.2152" ry="16" fill="#FF007A"/>
</svg>
