<?xml version="1.0" encoding="utf-8"?>
<!-- Generator: Adobe Illustrator 19.0.0, SVG Export Plug-In . SVG Version: 6.00 Build 0)  -->
<svg version="1.1" id="Layer_1" xmlns="http://www.w3.org/2000/svg" xmlns:xlink="http://www.w3.org/1999/xlink" x="0px" y="0px"
	 viewBox="0 0 730 700" style="enable-background:new 0 0 730 700;" xml:space="preserve">
<path id="XMLID_6_" d="M724.9,362.9c-4.7-2.8-9.4-1.4-13.2,1.1c-10.2,6.9-20.6,13.6-29.7,21.8c-33.9,30.8-67.4,62-100.9,93.2
	c-39,36.3-78,72.7-116.8,109.3c-33.1,31.2-65.9,62.7-98.8,94c-1,0.9-2,1.7-3,2.7c-2.6,2.5-4.1,3.1-5.9-1.3c-1.4-3.3-4.8-5.8-7.4-8.6
	c-11.1-12.3-23.1-24-33.3-37.2c-13.4-17.4-18-38.3-18.7-60c-0.5-15.9-1.7-31.7-8-46.5c-3.4-8-7.5-16.1-13-22.8
	c-8.7-10.9-18.5-20.9-28.4-30.8c-2.3-2.3-6.6-2.5-10.4-3.9c0.4-0.8-11.9,9.3-17.1,16.3c-4.4,6-3.9,7.9,1.5,13.5
	c0.5,0.5,0.7,1.2,1.3,1.5c10.5,6.3,10.6,16.8,10.8,27.1c0.2,15,0.1,29.9,0.1,45.6c-2.5-2-5.4-4-8-6.4
	c-25.6-23.8-51.2-47.6-76.6-71.7c-31.9-30.3-63.5-60.8-95.2-91.4c-16-15.5-31.8-31.3-47.6-47c-0.4-0.4-0.8-0.9-1.6-1.7
	c1.3-0.3,2-0.7,2.8-0.6c18.8,0.9,37.6,1.6,56.3,2.9c3.5,0.2,7.4,2.4,10,4.8c30.2,27.6,60.3,55.4,90.3,83.3
	c5.6,5.2,10.4,11.2,15.6,16.8c0.6,0.7,1.3,1.2,3.1,2.8c-0.3-4.8-0.5-8.4-0.9-11.9c-0.4-3.6,0.6-6.1,3.4-8.7
	c26-24.5,52.8-48.4,77.5-74.2c22.9-24,32.9-54.2,32.8-87.5c-0.1-26-0.4-52,0-78c0.2-14.1-1.2-28.8,6.4-41.5
	c5.8-9.7,12.9-19,20.6-27.4c8.9-9.7,19.1-18.3,28.1-28.2c0,3.1,0,6.2,0,9.2c0,60.5,0.1,121-0.1,181.5c-0.1,27.7-8.8,52.9-23.7,76.1
	c-12.7,19.8-28.7,36.6-45.5,52.8c-1.3,1.3-2.8,2.4-4.9,4.2c7.8,8,14.9,15.6,22.3,22.9c11.9,11.7,24,23,33.6,36.8
	c13.7,19.7,20.9,41.5,21.4,65.4c0.4,19,0,38-0.1,57c0,0.5,0.1,1,0.2,2.4c3.3-2.8,6.4-5.1,9.2-7.7c32.5-29.9,64.9-59.8,97.3-89.7
	c31.7-29.3,63.3-58.6,95-87.9c25.3-23.4,50.8-46.7,76.1-70.1c3.5-3.2,7.2-4.9,12-4.9c14.5-0.1,29-0.5,43.5-0.9c2,0,3.9-0.4,5.9-1.4
	c-3-0.5-6-1.1-9-1.6c9.2-1.9,18.6,1.1,27.6-3.1c-1.5-0.1-3-0.3-4.6-0.3c-6.3-0.2-12.7-0.3-19-0.5c-4.8-0.2-8.6-1.9-12.5-5.1
	c-35.8-29.8-67.7-63.6-101-95.9c-40.9-39.7-81.6-79.4-122.2-119.4c-20.3-20-40-40.5-59.7-61c-3.9-4-6.6-9.1-10.1-13.6
	c-6.5-8.3-5.4-18.6-7.5-28.1c-1-4.3-1.2-8.9-1.8-13.7c0.6,0.3,1.2,0.4,1.5,0.7c23.5,23.3,46.9,46.8,70.5,70
	c33.3,32.7,66.7,65.2,100,97.8c23.5,22.9,46.8,46,70.3,68.9c30,29.4,60,58.8,89.9,88.2c6,5.9,12,12,17.8,18.1
	c0.8,0.8,0.8,2.3,1.1,3.4C724.8,363.1,724.9,362.9,724.9,362.9z"/>
<path id="XMLID_5_" d="M397,549.4c0-8.2,0-15.6,0-23c-0.1-66.8-0.3-133.6-0.5-200.5c-0.2-65.3-0.5-130.7-0.8-196
	c0-3.9-1.4-7.9-2.5-13.3c5.8,6,11.2,10.8,15.8,16.3c13.3,15.7,27.5,30.8,36.2,49.9c4.7,10.3,7.8,20.8,7.7,32.2c0,37,0.1,74,0.2,111
	c0.1,54.2,0.2,108.3,0.5,162.5c0,5.9-1.6,10.5-5.9,14.5c-15.9,14.7-31.7,29.5-47.5,44.3C399.4,548,398.6,548.4,397,549.4z"/>
<path id="XMLID_4_" d="M360.6,11.6c-1.7,13.1-2.3,25.2-5,36.9c-1.4,5.9-5.5,11.9-9.9,16.4c-30.7,30.8-61.8,61.1-92.8,91.6
	c-24.8,24.4-49.7,48.7-74.6,73.1c-39,38.2-78.2,76.2-117.1,114.6c-7.7,7.6-16.8,10.5-26.9,11.3c-7.9,0.7-15.8,1-23.9,1.4
	C127.1,241.8,243.5,127,360.6,11.6z"/>
<path id="XMLID_3_" d="M179.5,417.7c-0.9-8-2.2-14.7-2.3-21.4c-0.5-38.8-0.1-77.6-1.3-116.4c-0.4-12.9,3.2-22.1,12.7-30.5
	c13.6-12,26.5-24.8,39.6-37.3c0.6-0.5,1.3-0.9,2.8-1.8c0.2,3.5,0.5,6.4,0.5,9.3c0,49.1,0,98.3-0.4,147.4c0,3.8-1.5,8.7-4.2,11.2
	c-13.2,12.4-27,24.1-40.7,35.9C184.7,415.4,182.8,416.1,179.5,417.7z"/>
</svg>
